<svg xmlns="http://www.w3.org/2000/svg" height="800" width="1200" viewBox="-4.7431515 -2.373075 41.107313 14.23845"><path d="M5.98776 1.13897c-.38276 0-.9352.12171-1.93428.45402v6.30273c.87842.28646 1.55152.45403 1.93428.45403.8823 0 1.37971-.58103 1.37971-1.51307V2.65203c0-.93204-.4974-1.51306-1.3797-1.51306m.2875 5.5358c0 .36476-.20355.48612-.44697.48612-.18944 0-.48189-.0741-.72037-.14429V2.46965c.23848-.0677.53093-.14182.72037-.14182.24342 0 .44697.12136.44697.48613zM18.60224.0043c-1.11725-.0582-1.78259.47272-1.78259 1.6884v6.03955c0 1.28341.60255 1.81151 1.7826 1.75613 1.15498-.054 1.75753-.5267 1.75753-1.89124v-5.7651c0-1.30104-.54504-1.76424-1.75754-1.82774m.53975 7.62c0 .36477-.11289.55386-.53975.56727-.4392.0138-.55845-.18909-.55845-.56727V1.86838c0-.37818.11924-.58773.55845-.57397.42686.0134.53975.2092.53975.57397zm10.32108-5.2628v4.75755c1.3709-.70097 2.15794-1.51553 2.15794-2.3883 0-.86325-.78705-1.67358-2.15794-2.36926M0 4.73085c0 .87136.786 1.68734 2.15653 2.3869V2.363C.786 3.05727 0 3.86761 0 4.73085M10.44281 7.4136c0 .36476-.11677.59583-.53975.54045-.41557-.054-.5274-.24342-.5274-.67557V.41908c-.27587.0324-.89112.12416-1.15464.16473v6.93773c0 1.10772.49953 1.53882 1.68204 1.68451 1.08197.13371 1.74484-.45508 1.74484-1.6845V.19187c-.22578.0137-.9666.0811-1.20509.1083zm13.26224-2.26672L22.36802.45282c-.36406-.0515-.80327-.10407-1.14229-.13794V9.1749c.23848-.024.84631-.0984 1.15993-.14182l-.0953-5.22076L23.705 8.82917c.30127-.0512.74048-.1337 1.02941-.19297V.85111c-.30128-.0635-.84879-.16334-1.1123-.20638zM14.26646.05563c-.20955 0-.97402.0282-1.6771.073v9.2329c.23847.0134.86606.0487 1.20508.0582V6.28424l.47202-.001c1.26294-.004 1.78752-.61312 1.78752-1.78576V1.77686c0-1.14794-.58984-1.72085-1.78752-1.72085m.56974 4.34411c0 .39722-.12912.59866-.61878.60007l-.42298.001V1.35805c.1884-.0106.28858-.0134.40182-.0134.52952 0 .63994.21625.63994.62124zM25.33065 2.2129c.29845.0575.59231.12136.87877.1891v5.89102c.26352-.0663.75318-.2039 1.0795-.30797V2.67998c.31327.0875.60854.17498.87877.25823V1.80227c-.8523-.32033-1.76742-.58103-2.83704-.82127z" fill="#e4001c"/></svg>