<svg xmlns="http://www.w3.org/2000/svg" height="800" width="1200" version="1.0" viewBox="-28.5 -8.01235 247 48.0741"><path d="M46.5534.9073h-4.3747L29.1698 30.1968l-.3929.8659h8.7517l2.5604-6.0298h12.9694l2.5627 6.0298h8.7516L50.9292.9073zm0 19.278h-4.3747l4.3747-10.2498 4.4153 10.2497h-4.4153M8.7516 6.9393H29.565V.9073H0v30.1554h8.7516V17.7794h17.7787v-5.7158H8.7516V6.9393M95.946 21.4068L79.075.9073h-8.4355v30.1554h8.4355V11.7475l15.6495 19.3152h9.657V.9073h-8.4354v20.4995m74.5027 5.7542c-3.0357.0395-5.4009-.946-7.0559-2.9172-1.655-2.0107-2.4837-4.7292-2.4453-8.238 0-3.3902.7903-6.111 2.2873-8.1205 1.5365-2.0897 3.9422-3.0357 7.214-3.0357 3.1531.0395 5.3997.8286 6.6607 2.4442 1.2622 1.6166 2.1292 3.5087 2.6011 5.6763L190 12.9306c-.6706-4.1387-2.5616-7.3314-5.6357-9.5001-3.1148-2.2071-7.6487-3.3496-13.6005-3.4298-6.7398-.0383-11.6677 1.4203-14.822 4.377-3.1542 2.9556-4.6919 6.8583-4.6512 11.6282.0395 5.9913 1.9316 10.13 5.7158 12.4161 3.7436 2.3257 8.3565 3.5088 13.7574 3.5878 5.9518.078 10.4857-1.0645 13.6005-3.4308 3.0741-2.3234 4.9651-5.5183 5.6357-9.578h-10.2893c-.9449 5.3997-4.019 8.1205-9.2619 8.16m-34.1755-7.0164c0 1.97-.7903 3.4693-2.4058 4.5327-1.6155 1.0635-3.6262 1.6155-6.0693 1.6155-2.1698.0396-4.1014-.4719-5.8355-1.497-1.7747-1.0262-2.6417-2.5627-2.6417-4.6512V.9073h-8.7505v19.9474c0 2.1676.5893 3.9807 1.7747 5.4009 1.1425 1.418 2.601 2.5616 4.3735 3.4286 1.7352.8275 3.5878 1.4575 5.5996 1.812 2.0096.3556 3.8238.5136 5.48.5532 1.497 0 3.231-.158 5.2021-.4742 2.0096-.3534 3.9006-.945 5.6764-1.7736 1.7747-.867 3.2717-2.0106 4.4944-3.4692 1.261-1.4575 1.8514-3.2717 1.8514-5.4777V.9073h-8.7493v19.2373" fill="#d91433" fill-rule="evenodd"/></svg>