<svg xmlns="http://www.w3.org/2000/svg" height="800" width="1200" xml:space="preserve" y="0" x="0" id="Layer_1" version="1.1" viewBox="-45 -33.4 390 200.4"><style id="style3600" type="text/css">.st0{fill:#e30613}</style><path id="path3602" d="M181.9 26.7H148v3.1c1.6.2 2.9.3 4 .6 1.3.3 2.2.7 2.9 1.3 2 1.7 2 5 2 10.8v39.3c0 8 .7 19.3-10.6 19.1-4.9-.1-9.8-3.5-11.4-9.8H131c1.6 10.6 7.3 17.8 21 17.8 11.6 0 22-5.4 22-23.5V42.5c0-5.9 0-8.9 2-10.7 1.3-1.1 2.3-1.6 5.9-2v-3z"/><path id="path3604" d="M220.9 26.7H187v3.1c3.5.3 4.7.9 5.9 2 1.6 1.4 1.9 3.6 1.9 7.5v54.8c-.1 3.8-.3 6.2-1.9 7.5-1.3 1.1-2.3 1.6-5.9 2v3.1h51.2l5.4-15.7h-3.9c-3.9 8.6-10 9.6-15.6 9.6-4.6 0-7.6-.3-9.7-1.6-1.7-1.1-2.3-4-2.4-9V42.5c0-5.9 0-9.1 2-10.8 1.3-1.1 3.4-1.5 7-1.8z"/><path id="path3606" d="M277.3 26.7h-33.9v3.1c3.5.3 4.7.9 5.9 2 1.6 1.4 1.9 3.6 1.9 7.5v54.8c-.1 3.8-.3 6.2-1.9 7.5-1.3 1.1-2.3 1.6-5.9 2v3.1h51.2L300 91h-3.9c-3.9 8.6-10 9.6-15.6 9.6-4.6 0-7.6-.3-9.7-1.6-1.7-1.1-2.3-4-2.4-9V42.5c0-5.9 0-9.1 2-10.8 1.3-1.1 3.4-1.5 7-1.8v-3.2z"/><g id="g3646"><g id="g3610"><path id="path3608" d="M49.8 131c1.6-.7 3.1-1.6 4.6-2.6l.9-.6c1.8-1.3 3.4-2.8 5-4.6 2-2.1 3.8-4.5 5.5-7 1.3-1.9 2.4-4 3.5-6.1 4.1-8.2 6.8-17.2 8.2-26.1.9-5.8 1.3-11.6 1.3-17.3 0-5.7-.4-11.5-1.3-17.3-1.4-8.9-4-18-8.2-26.1-.5-.9-1-1.9-1.5-2.8-2.2 4-4 8.3-5.5 12.8 2.7 8 4.3 16.5 4.9 24.9a123.53 123.53 0 010 17.2c-.7 10.3-2.8 20.6-6.8 30.2-1.5 3.7-3.3 7.3-5.5 10.7-.5.8-.9 1.6-1.5 2.4-1.1 1.6-2.2 3.1-3.4 4.7-1.4 1.7-2.9 3.4-4.6 5-1.7 1.7-3.5 3.2-5.5 4.6-.2.1-.3.2-.5.3v.2c3.5-.1 7.2-1 10.4-2.5zm0-7.6z" class="st0"/></g><g id="g3614"><path id="path3612" d="M70.6 131c1.6-.7 3.1-1.6 4.6-2.6l.9-.6c6.1-4.6 10.6-10.8 14-17.5 4.1-8.2 6.8-17.2 8.2-26.1.9-5.8 1.3-11.6 1.3-17.3 0-5.7-.4-11.5-1.3-17.3-1.4-8.9-4-18-8.2-26.1-3.1-6.2-7.3-12-12.7-16.5-1.7 1.8-3.3 3.8-4.8 5.9l1.5 2.1c8.6 12.8 12.8 28 13.8 43.3a123.53 123.53 0 010 17.2c-1 15.3-5.2 30.6-13.8 43.3-1.1 1.6-2.2 3.1-3.4 4.7-1.4 1.7-2.9 3.4-4.6 5-1.7 1.7-3.5 3.2-5.5 4.6-.2.1-.3.2-.5.3v.2c3.7-.2 7.3-1.1 10.5-2.6z" class="st0"/></g><g id="g3618"><path id="path3616" d="M97 127.7c6.1-4.6 10.6-10.8 14-17.5 4.1-8.2 6.8-17.2 8.2-26.1.9-5.8 1.3-11.6 1.3-17.3 0-5.7-.4-11.5-1.3-17.3-1.4-8.9-4-18-8.2-26.1-3.4-6.7-8-13.1-14-17.5C92.4 2.3 86.7.1 81.1 0v.2C86.6 4 91.3 9.3 94.9 14.9c8.6 12.8 12.8 28 13.8 43.3a123.53 123.53 0 010 17.2c-1 15.3-5.2 30.6-13.8 43.3-3.7 5.5-8.4 10.8-13.9 14.7v.2c5.7-.2 11.4-2.4 16-5.9z" class="st0"/></g><g id="g3622"><path id="path3620" d="M70.6 2.5c-1.6.7-3.1 1.6-4.6 2.6l-.9.6c-1.7 1.3-3.4 2.8-5 4.5-2 2.1-3.8 4.5-5.5 7-1.3 1.9-2.4 4-3.5 6.1-4.1 8.2-6.8 17.2-8.2 26.1-.9 5.8-1.3 11.6-1.3 17.3 0 5.7.4 11.5 1.3 17.3 1.4 8.9 4 18 8.2 26.1.5.9 1 1.9 1.5 2.8 2.2-4 4-8.3 5.5-12.8-2.7-8-4.3-16.5-4.9-24.9a123.53 123.53 0 010-17.2c.7-10.3 2.8-20.6 6.8-30.2 1.6-3.6 3.4-7.3 5.6-10.7.5-.8.9-1.6 1.5-2.4 1.1-1.6 2.2-3.1 3.4-4.7 1.4-1.7 2.9-3.4 4.6-5 1.7-1.7 3.5-3.2 5.5-4.6.2-.1.3-.2.5-.3V0C77.5.1 74 1 70.6 2.5zm0 7.6z" class="st0"/></g><g id="g3626"><path id="path3624" d="M49.8 2.5c-1.6.7-3.1 1.6-4.6 2.6l-.9.6c-6 4.6-10.5 10.8-14 17.5-4.1 8.2-6.8 17.2-8.2 26.1-.9 5.9-1.3 11.6-1.3 17.4 0 5.7.4 11.5 1.3 17.3 1.4 8.9 4 18 8.2 26.1 3.1 6.2 7.3 12 12.7 16.5 1.7-1.8 3.3-3.8 4.8-5.9l-1.5-2.1c-8.6-12.8-12.8-28-13.8-43.3a123.53 123.53 0 010-17.2c1-15.3 5.2-30.6 13.8-43.3 1.1-1.6 2.2-3.1 3.4-4.7 1.4-1.7 2.9-3.4 4.6-5C56 3.5 57.8 2 59.7.7c.2-.1.3-.2.5-.3V0c-3.5.1-7.1 1-10.4 2.5z" class="st0"/></g><g id="g3630"><path id="path3628" d="M23.5 5.8c-6.1 4.6-10.6 10.8-14 17.5-4.1 8.2-6.8 17.2-8.2 26.1C.4 55.3 0 61 0 66.8c0 5.7.4 11.5 1.3 17.3 1.4 8.9 4 18 8.2 26.1 3.4 6.7 8 13.1 14 17.5 4.6 3.3 10.2 5.6 15.9 5.8v-.2c-5.6-3.8-10.2-9.1-13.9-14.7-8.6-12.8-12.8-28-13.8-43.3a123.53 123.53 0 010-17.2c1-15.3 5.2-30.6 13.8-43.3C29.1 9.3 33.8 4 39.4.2V0C33.7.1 28 2.3 23.5 5.8z" class="st0"/></g><g id="g3638"><path id="path3632" d="M63.9 126.7c1.7-1.8 3.3-3.8 4.8-5.9l-1.5-2.1-1.5-2.4c-1.6 2.4-3.4 4.9-5.5 7 1.1 1.2 2.5 2.3 3.7 3.4" class="st0"/><path id="path3634" d="M75.2 128.4c-1.4 1-2.9 1.8-4.6 2.6 3.2 1.5 6.9 2.4 10.4 2.5v-.2c-2-1.4-4-3.1-5.8-4.9" class="st0"/><path id="path3636" d="M58.3 133.4c.6-.1 1.1-.2 1.7-.2-.6-.4-1.1-.8-1.7-1.2-1.4-1.1-2.7-2.2-3.9-3.4-1.4 1-2.9 1.8-4.6 2.6 2.1 1 4.5 1.7 6.8 2.1.6-.1 1.1 0 1.7.1m1.9.1v-.2c-.1-.1-.2-.1-.3-.2-.6.1-1.1.2-1.7.2.7.2 1.4.2 2 .2z" class="st0"/></g><path id="path3640" d="M56.6 6.9c-1.7 1.8-3.3 3.8-4.8 5.9l1.5 2.1 1.5 2.4c1.6-2.4 3.4-4.9 5.5-7-1.2-1.3-2.4-2.4-3.7-3.4" class="st0"/><path id="path3642" d="M45.2 5.2c1.4-1 2.9-1.8 4.6-2.6C46.6 1 42.9.1 39.4 0v.2c2.1 1.4 4 3.1 5.8 5" class="st0"/><path id="path3644" d="M70.6 2.5c-2.1-1-4.5-1.7-6.8-2.1-.6-.1-1.1-.2-1.7-.2-.6-.1-1.2-.2-1.9-.2v.2c.1.1.2.1.3.2.6.4 1.1.8 1.7 1.2 1.4 1.1 2.7 2.2 3.9 3.4 1.5-.9 3-1.8 4.5-2.5" class="st0"/></g></svg>