<svg xmlns="http://www.w3.org/2000/svg" height="800" width="1200" viewBox="-59.4 -17.95405 514.8 107.7243"><path d="M143.6852 26.0041c0-.652.4435-1.0006 1.0006-1.0006.9425 0 2.3654 1.0006 3.168 3.0017-.2878 0-.7207.0871-1.0111.0871-1.716 0-3.1575-.8157-3.1575-2.0882zm-103.821 0c0-.652.425-1.0006 1.0058-1.0006.9187 0 2.2836 1.0006 3.0756 3.0017-2.6506 0-4.0814-.5729-4.0814-2.0011zm20.0244-10.341c0-10.7052 2.0856-12.3499 2.7325-12.3499 1.151 0 1.2883.718 1.2883 4.8233 0 4.2187-1.7979 9.739-4.0208 12.7697zM132.782 26.218c-1.2356 1.7213-2.2361 4.166-2.2361 7.3155 0 6.0324 3.44 11.7903 10.1244 11.7903 6.4628 0 10.9904-5.1058 10.9904-12.2259 0-2.0671-.0792-2.3522-.2139-3.2102 1.5022-.6548 2.7985-1.6553 3.807-2.4553.858-.6468 1.4995-1.0084 2.0116-1.0084.6442 0 .9267.5042.9267 1.4361v14.0871c0 2.2942.726 3.3766 2.5133 3.3766 1.6473 0 2.8063-1.1563 3.4478-2.5186 2.376-4.9553 5.816-11.5606 7.3181-14.0686.3617-.5755.6548-1.0164.8607-1.0164.2877 0 .4356.2191.4356 1.1484v11.2148c0 3.1548 1.4414 5.2404 4.5883 5.2404 3.3106 0 4.9527-3.1707 7.8461-8.052.1373-.293.198-.5016.198-.7102 0-.6468-.5597-1.0138-1.1378-1.0138-.6521 0-1.0112.6521-3.1601 3.015-.4356.4487-.858 1.0718-1.6553 1.0718-.2851 0-.5043-.3459-.5043-.7841V26.2787c0-3.3766-1.51-4.7389-3.4478-4.7389-1.576 0-2.875.6468-4.2372 2.6585-2.442 3.5984-4.9553 8.7015-6.315 11.2729-.153.301-.359.7286-.4989.7286-.1505 0-.2138-.2218-.2138-.7286v-9.1925c0-2.6506-.7181-4.7389-3.5244-4.7389-2.9463 0-4.4511 2.0144-6.6054 3.5192-1.3648 1.0164-2.5819 1.7265-3.5112 2.1569-1.444-3.6617-4.0973-5.5177-6.3228-5.4622-2.2334.0765-3.8122 1.4493-3.8122 3.7488 0 2.3575 1.4441 3.9996 3.374 4.7309 1.0718.4303 2.0803.5122 3.5244.5122.433 0 .8606 0 1.1378-.0819.1531.7155.0845 1.7345.0845 2.5212 0 3.5245-2.083 7.033-5.9559 7.033-4.0313 0-6.3914-3.8781-6.3914-8.3266 0-3.3792 1.0005-6.175 2.64-8.1074.6626-.7234 1.1563-1.1616 1.1563-1.8243 0-.3353-.4937-.4197-.9293-.4197-2.735 0-5.742 1.225-7.8197 2.2968-2.743 1.4388-5.9664 3.8174-8.6275 6.1855-1.291-2.8802-2.8697-5.3935-3.6644-7.3392-.2851-.7894-.4937-1.7055-1.0692-1.7055-.5095 0-.7313.5016-1.0824 1.4916-1.2883 3.8096-8.1867 14.9504-9.6941 16.4579-.1426.2059-.3511.433-.4198.433-.1557 0-.2376-.0714-.2376-.5096V26.2787c0-3.3766-1.3622-4.7389-3.2155-4.7389-1.5866 0-2.9462.6468-4.2372 2.6585-2.3655 3.5984-5.251 8.8414-6.6106 11.4207-.2191.4435-.4356.5808-.5095.5808-.0713 0-.1294-.2851-.1294-.7286v-9.1925c0-3.3766-1.3701-4.7389-3.2393-4.7389-1.584 0-3.0835.5888-4.3111 2.6585-3.0096 5.1058-8.0336 12.9334-8.9681 14.2165-.1452.2218-.2904.367-.433.4356-.1425 0-.2244-.14-.2244-.4963V26.2787c0-3.3766-1.3622-4.7389-3.2182-4.7389-2.5898 0-4.018 2.3813-4.9605 3.8809-1.299 2.083-3.015 4.8893-4.3745 7.4791-.9372 1.7319-1.7319 3.3-2.0223 3.3-.1372 0-.1372-.652-.1372-1.8691v-9.6202c4.517-5.0371 7.3207-11.2069 7.3207-17.9574 0-3.886-1.716-6.0297-4.3666-6.0297-4.9658 0-8.7622 7.759-8.7622 16.9435v7.4686c-2.302 1.4388-4.459 2.141-7.12 2.6612-1.3597-4.0129-4.2373-6.0985-6.5262-6.043-2.2202.0765-3.8069 1.4493-3.8069 3.7488 0 3.8016 3.7356 5.3803 7.0304 5.3803h.9345c.14.7234.14 1.5154.14 2.3021 0 3.5244-2.0804 7.033-5.948 7.033-4.018 0-6.394-3.8782-6.394-8.3266 0-3.3792.9952-6.175 2.6478-8.1075.6521-.7233 1.159-1.3701 1.159-1.8242 0-.3353-.5069-.4198-.9425-.4198-2.7271 0-8.7516 3.6776-15.9377 10.8584-.6363-5.7473-1.3596-11.3547-1.3596-16.8142 0-6.101 1.2064-11.2834 1.4942-12.7777.1452-.9266.235-1.51.235-1.9325 0-.5781-.3063-.8738-1.0798-.8738C12.7829 0 0 9.269 0 23.129c0 9.829 3.5983 14.573 9.834 20.6767-3.7857 6.1063-6.8217 13.3558-6.8217 19.8212 0 4.6596 1.0876 8.1893 4.525 8.1893 7.1834 0 12.5637-14.9293 12.5637-25.9962 0-3.3-.132-6.608-.4144-9.9053 2.6479-2.8169 6.7425-6.6106 7.7405-6.9696-.4277 1.51-.7155 3.094-.7155 4.5883 0 6.0324 3.4532 11.7903 10.1245 11.7903 6.2568 0 10.9877-5.1058 10.9877-12.2259 0-.9187-.074-1.7186-.1373-2.5766 2.2862-.4304 4.3903-1.019 6.3941-2.2203v14.433c0 1.8585 1.283 2.5898 2.5054 2.5898 1.6605 0 2.5212-1.1563 3.7303-3.799 1.0164-2.1648 3.7356-7.1148 5.3856-10.069 1.3016-2.3047 2.0196-3.8016 2.5978-3.8016.1346 0 .2878.3511.2878 1.2144v12.284c0 3.3053 1.7239 4.1712 3.2155 4.1712 1.4362 0 2.376-.7894 3.3106-2.0856 3.7382-5.3196 7.693-11.6319 9.2611-14.3696.2904-.491.6468-.8633.9372-.8633.2799 0 .425.1558.425 1.0772V41.947c0 2.2942.7181 3.3766 2.5213 3.3766 1.642 0 2.7165-1.1563 3.358-2.5186 2.3866-4.9553 5.8952-11.4946 7.4106-14.0686.3511-.5755.7128-1.0824.9266-1.0824.2983 0 .3643.3511.3643 1.291v12.2074c0 3.3053 1.724 4.1712 3.242 4.1712 1.9932 0 3.3-1.444 4.591-3.0888 2.3548-3.102 5.8053-8.609 7.891-12.144.7233 1.1536 1.5047 2.5211 2.1621 4.026-1.7266 2.083-3.4531 4.4457-3.4531 6.9564 0 2.6611 1.8665 4.2504 3.8069 4.2504 3.2973 0 6.3096-3.1707 6.3096-7.5425 0-1.7187-.4937-3.5191-1.1352-5.2378 2.9278-2.8802 6.4522-5.6813 9.05-6.3255zM14.499 41.8732c.5807 3.8016 1.085 7.5452 1.085 10.4835 0 6.8825-2.2915 14.9292-6.2436 14.8632-1.526 0-2.809-1.5259-2.8724-4.1685-.1452-8.6091 3.9468-15.9378 8.031-21.1782zm104.8427-4.8946c.4356 1.2355.6547 2.2335.6547 3.2393 0 1.151-.433 2.3021-1.2276 2.3021-.565 0-1.1405-.6468-1.1405-1.6553 0-1.0797.9293-2.8037 1.7134-3.886zM17.0914 2.7298c0 .4382-1.0058 2.442-2.2941 6.0377-1.365 3.7277-2.6664 9.0367-2.6664 15.4308 0 3.807.9424 8.8414 1.737 13.9366l-2.2994 3.0994c-3.667-4.4642-5.9611-9.4829-5.9611-18.1052 0-12.2047 7.3947-20.6713 11.1936-20.6713.227 0 .2904.0634.2904.272zm337.1991 23.2743c0-.652.4197-1.0006 1.0006-1.0006.9266 0 2.3654 1.0006 3.1521 3.0017-.2797 0-.7102.0871-1.0111.0871-1.708 0-3.1416-.8157-3.1416-2.0882zm-103.8422 0c0-.652.4382-1.0006 1.0058-1.0006.9346 0 2.3127 1.0006 3.0862 3.0017-2.6558 0-4.092-.5729-4.092-2.0011zm20.0377-10.341c0-10.7052 2.0724-12.3499 2.7271-12.3499 1.1458 0 1.291.718 1.291 4.8233 0 4.2187-1.8005 9.739-4.0181 12.7697zm-45.3765 26.2101c.557 3.8016 1.0797 7.5452 1.0797 10.4835 0 6.8825-2.2941 14.9292-6.2541 14.8632-1.5048 0-2.7985-1.5259-2.8697-4.1685-.1479-8.6091 3.952-15.9378 8.044-21.1782zm104.84-4.8946c.4357 1.2355.6416 2.2335.6416 3.2393 0 1.151-.4303 2.3021-1.2197 2.3021-.5676 0-1.159-.6468-1.159-1.6553 0-1.0797.9425-2.8037 1.7372-3.886zM227.6809 2.7298c0 .4382-.9952 2.442-2.2968 6.0377-1.3543 3.7277-2.6558 9.0367-2.6558 15.4308 0 3.807.9583 8.8414 1.7424 13.9366l-2.3047 3.0994c-3.6564-4.4642-5.9665-9.4829-5.9665-18.1052 0-12.2047 7.4106-20.6713 11.2095-20.6713.2086 0 .272.0634.272.272zm-11.9724 35.9068c1.283 1.7239 2.867 3.3739 4.7335 5.169-3.8095 6.1064-6.8217 13.356-6.8217 19.8213 0 4.6596 1.085 8.1893 4.5329 8.1893 7.1729 0 12.5532-14.9293 12.5532-25.9962 0-3.3-.14-6.608-.4277-9.9053 2.6611-2.8169 6.74-6.6106 7.759-6.9696-.433 1.51-.7313 3.094-.7313 4.5883 0 6.0324 3.4505 11.7903 10.135 11.7903 6.241 0 10.9798-5.1058 10.9798-12.2259 0-.9187-.066-1.7186-.1452-2.5766 2.3021-.4304 4.3983-1.019 6.3968-2.2203v14.433c0 1.8585 1.2857 2.5898 2.4974 2.5898 1.6738 0 2.5344-1.1563 3.7488-3.799 1.0006-2.1648 3.7357-7.1148 5.391-10.069 1.2883-2.3047 2.0063-3.8016 2.595-3.8016.1347 0 .2694.3511.2694 1.2144v12.284c0 3.3053 1.7186 4.1712 3.2287 4.1712 1.4414 0 2.3654-.7894 3.3185-2.0856 3.7224-5.3196 7.6771-11.6319 9.2532-14.3696.2878-.491.6521-.8633.9293-.8633.2798 0 .4382.1558.4382 1.0772V41.947c0 2.2942.7102 3.3766 2.5028 3.3766 1.6526 0 2.7297-1.1563 3.3818-2.5186 2.3708-4.9553 5.8873-11.4946 7.3894-14.0686.367-.5755.7234-1.0824.9478-1.0824.2798 0 .359.3511.359 1.291v12.2074c0 3.3053 1.7081 4.1712 3.213 4.1712 2.0248 0 3.3184-1.444 4.6015-3.0888 2.368-3.102 5.8238-8.609 7.9041-12.144.7102 1.1536 1.5101 2.5211 2.1622 4.026-1.7424 2.083-3.4478 4.4457-3.4478 6.9564 0 2.6611 1.8453 4.2504 3.799 4.2504 3.2973 0 6.3096-3.1707 6.3096-7.5425 0-1.7187-.499-3.5191-1.1458-5.2378 2.941-2.8802 6.4627-5.6813 9.0473-6.3255-1.2197 1.7213-2.2255 4.166-2.2255 7.3155 0 6.0324 3.4505 11.7903 10.1297 11.7903 6.4627 0 10.9745-5.1058 10.9745-12.2259 0-2.0671-.066-2.3522-.2006-3.2102 1.4916-.6548 2.7931-1.6553 3.8095-2.4553.8422-.6468 1.5022-1.0084 1.9959-1.0084.6494 0 .953.5042.953 1.4361V41.947c0 2.2942.7075 3.3766 2.5028 3.3766 1.6447 0 2.801-1.1563 3.4504-2.5186 2.355-4.9553 5.808-11.5606 7.3102-14.0686.359-.5755.6521-1.0164.8686-1.0164.293 0 .433.2191.433 1.1484v11.2148c0 3.1548 1.4229 5.2404 4.591 5.2404 3.3131 0 4.9605-3.1707 7.8381-8.052.1346-.293.2033-.5016.2033-.7102 0-.6468-.5755-1.0138-1.1457-1.0138-.6415 0-1.0085.6521-3.1575 3.015-.425.4487-.8633 1.0718-1.65 1.0718-.2956 0-.499-.3459-.499-.7841V26.2787c0-3.3766-1.5259-4.7389-3.4636-4.7389-1.5709 0-2.8565.6468-4.2267 2.6585-2.4473 3.5984-4.9527 8.7015-6.307 11.2729-.1558.301-.3643.7286-.5174.7286-.1532 0-.2086-.2218-.2086-.7286v-9.1925c0-2.6506-.718-4.7389-3.5191-4.7389-2.9516 0-4.4511 2.0144-6.6027 3.5192-1.3781 1.0164-2.5899 1.7265-3.5323 2.1569-1.423-3.6617-4.0894-5.5177-6.3044-5.4622-2.2387.0765-3.8043 1.4493-3.8043 3.7488 0 2.3575 1.4362 3.9996 3.3581 4.7309 1.0798.4303 2.0857.5122 3.5403.5122.4198 0 .8369 0 1.1431-.0819.1399.7155.0661 1.7345.0661 2.5212 0 3.5245-2.0882 7.033-5.969 7.033-4.018 0-6.3783-3.8781-6.3783-8.3266 0-3.3792.998-6.175 2.6427-8.1074.6547-.7234 1.1616-1.1616 1.1616-1.8243 0-.3353-.507-.4197-.9372-.4197-2.7166 0-5.742 1.225-7.825 2.2968-2.7324 1.4388-5.9638 3.8174-8.6117 6.1855-1.2964-2.8803-2.8672-5.3935-3.6671-7.3392-.2957-.7894-.491-1.7055-1.0877-1.7055-.4964 0-.7155.5016-1.0692 1.4916-1.2963 3.8096-8.184 14.9504-9.6915 16.4579-.1452.2059-.359.433-.4356.433-.1347 0-.2139-.0714-.2139-.5096V26.2787c0-3.3766-1.3543-4.7389-3.2392-4.7389-1.5814 0-2.9252.6468-4.232 2.6585-2.3733 3.5984-5.2378 8.8414-6.6026 11.4207-.2113.4435-.4224.5808-.491.5808-.082 0-.1559-.2851-.1559-.7286v-9.1925c0-3.3766-1.3543-4.7389-3.2234-4.7389-1.584 0-3.102.5888-4.3111 2.6585-3.0255 5.1058-8.0442 12.9334-8.984 14.2165-.1267.2218-.2798.367-.433.4356-.1267 0-.2112-.14-.2112-.4963V26.2787c0-3.3766-1.3596-4.7389-3.234-4.7389-2.5925 0-4.018 2.3813-4.958 3.8809-1.2909 2.083-3.0043 4.8893-4.3744 7.4791-.9267 1.7319-1.7187 3.3-2.0064 3.3-.1452 0-.1452-.652-.1452-1.8691v-9.6202c4.5302-5.0371 7.3207-11.2069 7.3207-17.9574 0-3.886-1.7186-6.0297-4.385-6.0297-4.9474 0-8.749 7.759-8.749 16.9435v7.4686c-2.3048 1.4388-4.459 2.141-7.1202 2.6612-1.3543-4.0129-4.2292-6.0985-6.5129-6.043-2.2413.0765-3.8148 1.4493-3.8148 3.7488 0 3.8016 3.7224 5.3803 7.033 5.3803h.9399c.132.7234.132 1.5154.132 2.3021 0 3.5244-2.0751 7.033-5.956 7.033-4.0233 0-6.3808-3.8782-6.3808-8.3266 0-3.3792 1.0032-6.175 2.6426-8.1075.6442-.7233 1.151-1.3701 1.151-1.8242 0-.3353-.5068-.4198-.9319-.4198-2.7324 0-8.7595 3.6776-15.9483 10.8584-.631-5.7473-1.357-11.3547-1.357-16.8142 0-6.101 1.2198-11.2834 1.5075-12.7777.1426-.9266.2218-1.51.2218-1.9325 0-.5781-.293-.8738-1.0692-.8738-5.8186 0-18.6015 9.269-18.6015 23.1291 0 5.6655 1.2197 9.6968 3.374 13.2106-.8026-.1399-1.4336-.1399-2.0223-.1399-2.289 0-4.451.5703-5.7922.8633v-1.444c0-3.0757-.7287-7.3182-2.025-8.757-.153-.1478-.3669-.2112-.5675-.2112-.5914 0-1.2989.2772-2.0856.7128-.8712.433-1.7319.8686-1.7319 1.1484 0 .1373 0 .2825.2165.6389.507.7366 1.8744 2.1595 2.3681 5.544-2.4473-2.4446-5.2351-3.5297-8.8836-3.5297-4.3164 0-5.6153 1.9325-5.6153 3.8835 0 3.733 4.9553 5.5994 11.2121 5.5994 1.1458 0 2.4341-.2165 3.7198-.5095 0 1.151.1452 2.1701.1452 3.0255 0 1.2223.2085 2.1595 1.0085 2.1595 1.217 0 1.9404-2.4526 2.0777-5.9638 2.2255-.5782 4.5276-1.0745 6.4733-1.0745.9293 0 2.0909.1294 3.2287.3512zm-14.1452-.7181c-1.2091.1425-1.9457.1425-3.226.1425-2.809 0-4.8788-1.0824-4.8788-2.648 0-1.0031.4963-1.5866 1.9325-1.5866 2.302 0 4.158 1.5867 6.1723 4.092z" fill="#d51900" fill-rule="evenodd"/></svg>