<?xml version="1.0" encoding="UTF-8"?>
<svg version="1.1" xmlns="http://www.w3.org/2000/svg" width="852" height="194">
<path d="M0 0 C281.16 0 562.32 0 852 0 C852 64.02 852 128.04 852 194 C570.84 194 289.68 194 0 194 C0 129.98 0 65.96 0 0 Z " fill="#FEFEFE" transform="translate(0,0)"/>
<path d="M0 0 C10.83841804 9.39766156 16.9003928 19.00000869 20.3984375 32.9921875 C20.3984375 36.9521875 20.3984375 40.9121875 20.3984375 44.9921875 C-8.9715625 44.9921875 -38.3415625 44.9921875 -68.6015625 44.9921875 C-66.6649308 58.62204229 -66.6649308 58.62204229 -60.6015625 69.9921875 C-60.2096875 70.58644531 -59.8178125 71.18070312 -59.4140625 71.79296875 C-55.10255281 77.5865599 -48.07645636 82.3676821 -40.95703125 83.74609375 C-27.44623973 85.15766898 -15.49890929 83.55693228 -4.6015625 74.9921875 C-2.35895163 72.5446484 -0.35087913 70.03699873 1.609375 67.359375 C3.3788543 65.0180989 5.27971864 63.01757073 7.3984375 60.9921875 C10.6984375 62.6421875 13.9984375 64.2921875 17.3984375 65.9921875 C15.97581805 72.1568718 12.41711627 76.29000394 8.3984375 80.9921875 C7.8725 81.61480469 7.3465625 82.23742187 6.8046875 82.87890625 C-1.86013604 92.32951035 -12.68464277 96.767081 -25.2734375 97.36328125 C-42.12887788 97.70137961 -54.3459779 95.84248268 -66.875 83.80859375 C-72.62976954 77.8339576 -76.4158989 71.62961177 -79.6015625 63.9921875 C-79.941875 63.19296875 -80.2821875 62.39375 -80.6328125 61.5703125 C-84.37748945 51.23777794 -83.61865477 38.43063318 -80.6015625 27.9921875 C-80.35664063 27.11304688 -80.11171875 26.23390625 -79.859375 25.328125 C-75.55546513 11.80699223 -66.0722864 1.18489108 -53.6015625 -5.3828125 C-36.22226917 -13.42756715 -15.35828596 -11.85309157 0 0 Z " fill="#F90C44" transform="translate(502.6015625,45.0078125)"/>
<path d="M0 0 C6.52099682 4.57591938 10.86174337 10.86835974 14.73046875 17.74609375 C15.13136719 17.18921875 15.53226562 16.63234375 15.9453125 16.05859375 C23.15142711 6.38507935 29.94681816 0.03067037 41.73046875 -3.25390625 C42.41238281 -3.44597656 43.09429687 -3.63804688 43.796875 -3.8359375 C51.7244955 -5.54958476 59.92876861 -3.99164292 66.9296875 0 C75.4844465 5.98018391 80.7185392 14.25518047 82.79638672 24.46606445 C84.10446157 31.92236773 83.98046674 39.37407325 83.92578125 46.9140625 C83.92204226 48.44533603 83.91919948 49.97661199 83.91720581 51.50788879 C83.90963901 55.50105619 83.89005196 59.49407368 83.86779785 63.48718262 C83.84718793 67.57672092 83.838172 71.6662839 83.828125 75.75585938 C83.80679809 83.75267999 83.77167437 91.74935084 83.73046875 99.74609375 C79.44046875 99.74609375 75.15046875 99.74609375 70.73046875 99.74609375 C70.71064941 97.70301025 70.69083008 95.65992676 70.67041016 93.55493164 C70.60327198 86.77749877 70.52563691 80.00021474 70.44294167 73.22295475 C70.39315973 69.11701345 70.34682929 65.01109564 70.30859375 60.9050293 C70.27151074 56.93674091 70.22509096 52.96865822 70.17240524 49.00054741 C70.15398278 47.49246291 70.13883083 45.98433453 70.12712479 44.47618294 C70.25790402 28.97952683 70.25790402 28.97952683 63.55078125 15.4765625 C58.94968232 11.10255643 53.66618181 9.53524044 47.41796875 9.12109375 C40.01163844 9.42275608 33.2436249 12.59255201 27.74609375 17.52734375 C26.26182807 19.20265353 24.97206332 20.88589553 23.73046875 22.74609375 C23.15296875 23.59171875 22.57546875 24.43734375 21.98046875 25.30859375 C16.96600361 35.08680078 17.56699314 46.23599444 17.4140625 56.97265625 C17.38289085 58.81589981 17.38289085 58.81589981 17.35108948 60.69638062 C17.28616425 64.5878996 17.22697637 68.47948099 17.16796875 72.37109375 C17.12472919 75.02344373 17.08111325 77.67578759 17.03710938 80.328125 C16.93054199 86.80071873 16.82911697 93.27337468 16.73046875 99.74609375 C12.44046875 99.74609375 8.15046875 99.74609375 3.73046875 99.74609375 C3.71588623 97.74377686 3.70130371 95.74145996 3.6862793 93.6784668 C3.63569264 87.02473707 3.56905695 80.37123549 3.49475384 73.71773052 C3.45023616 69.68806183 3.41094049 65.65848992 3.3840332 61.62866211 C3.35781275 57.73161091 3.31728201 53.83493594 3.26728249 49.93811989 C3.2507393 48.45961032 3.2391476 46.98103586 3.23285484 45.50244713 C3.22331146 28.95378594 3.22331146 28.95378594 -4.26953125 14.74609375 C-9.91702223 10.78442097 -15.48211503 8.84604484 -22.3984375 9.19921875 C-30.13468007 10.67278876 -37.35502426 14.54163732 -42.09765625 20.90234375 C-48.80000516 31.4473727 -49.57101616 41.41185938 -49.68359375 53.75 C-49.7029599 55.06902817 -49.72232605 56.38805634 -49.74227905 57.74705505 C-49.79322236 61.22389946 -49.83304805 64.70078221 -49.87042236 68.17779541 C-49.91070158 71.73776435 -49.96168373 75.29757906 -50.01171875 78.85742188 C-50.10802925 85.82020542 -50.19158353 92.78308064 -50.26953125 99.74609375 C-54.55953125 99.74609375 -58.84953125 99.74609375 -63.26953125 99.74609375 C-63.26953125 66.41609375 -63.26953125 33.08609375 -63.26953125 -1.25390625 C-58.97953125 -1.25390625 -54.68953125 -1.25390625 -50.26953125 -1.25390625 C-49.93953125 3.69609375 -49.60953125 8.64609375 -49.26953125 13.74609375 C-47.78453125 11.95171875 -47.78453125 11.95171875 -46.26953125 10.12109375 C-34.41802931 -3.24135664 -16.49250231 -9.11203656 0 0 Z " fill="#F90B44" transform="translate(63.26953125,39.25390625)"/>
<path d="M0 0 C7.6474487 6.100277 13.00371401 14.77748129 14.58984375 24.4296875 C14.86865584 27.58222658 14.91511012 30.70368006 14.90234375 33.8671875 C14.91845703 34.66189453 14.93457031 35.45660156 14.95117188 36.27539062 C14.96001906 47.14858415 10.6948113 56.17268755 3.40234375 64.1171875 C-5.03155896 72.16522538 -15.82353683 74.88810492 -27.1953125 74.6796875 C-37.18645562 73.90273348 -45.82671942 68.87936602 -52.41015625 61.4296875 C-52.90386719 60.87796875 -53.39757812 60.32625 -53.90625 59.7578125 C-62.28148356 49.6490518 -63.5011527 38.04267086 -62.41015625 25.4296875 C-61.79813043 22.17182696 -60.84766418 19.40903862 -59.41015625 16.4296875 C-58.8996875 15.31207031 -58.8996875 15.31207031 -58.37890625 14.171875 C-53.0826203 3.61508881 -45.19661757 -2.1170449 -34.41015625 -6.5703125 C-22.28459113 -10.48334347 -10.28863108 -6.7034517 0 0 Z " fill="#FEFDFD" transform="translate(793.41015625,55.5703125)"/>
<path d="M0 0 C10.54098932 5.3208818 18.35926 12.58848538 22.3515625 23.8671875 C22.69380859 24.93839844 22.69380859 24.93839844 23.04296875 26.03125 C23.53796875 27.51625 23.53796875 27.51625 24.04296875 29.03125 C24.9361606 39.21363706 25.41187872 50.02114158 20.04296875 59.03125 C19.44484375 60.083125 18.84671875 61.135 18.23046875 62.21875 C11.25722961 71.18434318 2.58602632 77.5471426 -8.95703125 79.03125 C-20.42717063 79.92337195 -29.37035651 77.99218997 -38.63671875 71.03515625 C-46.02660836 64.65297886 -52.03472288 55.7690809 -53.21142578 45.89697266 C-54.16611605 31.89983662 -52.14683414 21.01103458 -42.95703125 10.03125 C-37.7226002 4.35156652 -32.24361105 1.43853924 -24.95703125 -0.96875 C-17.51802617 -3.44841836 -7.27320795 -2.9474914 0 0 Z " fill="#FEFDFE" transform="translate(359.95703125,50.96875)"/>
<path d="M0 0 C7.95784459 6.54949753 13.09476885 13.90930655 16.375 23.75 C16.62700799 26.78707809 16.60631004 29.82853646 16.625 32.875 C16.645625 33.69226563 16.66625 34.50953125 16.6875 35.3515625 C16.75533746 46.06988158 12.73231327 55.8275693 5.5234375 63.796875 C0.96205408 68.0493201 -3.83055351 70.55497629 -9.625 72.75 C-10.40230469 73.10707031 -11.17960937 73.46414062 -11.98046875 73.83203125 C-20.01007412 76.61926502 -29.40145883 75.30248939 -37.09765625 72.0703125 C-46.72154448 67.04268619 -54.08987665 59.40380303 -58.0625 49.25 C-61.1375389 38.88499819 -61.42575148 25.62388603 -56.625 15.75 C-51.31863997 6.48492694 -44.21697591 -0.54450238 -34.625 -5.25 C-22.62841352 -8.46337138 -9.95477029 -7.31002109 0 0 Z " fill="#FEFDFD" transform="translate(243.625,55.25)"/>
<path d="M0 0 C4.29 0 8.58 0 13 0 C13 46.2 13 92.4 13 140 C8.71 140 4.42 140 0 140 C-0.33 134.72 -0.66 129.44 -1 124 C-2.65 125.65 -4.3 127.3 -6 129 C-16.74567549 139.70033509 -27.76685778 142.33599321 -42.43237305 142.38500977 C-54.76351725 142.19822014 -63.8259695 138.34494327 -73 130 C-73.62519531 129.45472656 -74.25039063 128.90945312 -74.89453125 128.34765625 C-84.75202984 119.22034274 -90.35575458 106.12208665 -91.203125 92.80859375 C-91.44594964 75.34545536 -86.55042843 62.00112654 -74.4375 49.25390625 C-63.80537067 39.42259436 -51.39446341 35.37161272 -37.1027832 35.59741211 C-24.47749357 36.1035708 -14.19012644 41.46631116 -5 50 C-3.68 51.65 -2.36 53.3 -1 55 C-0.67 36.85 -0.34 18.7 0 0 Z M-68.1875 62.25 C-77.0276642 73.11905434 -78.35667201 85.47502364 -77 99 C-74.20514367 110.32982116 -67.29599212 119.25394403 -57.59765625 125.55859375 C-47.62473781 131.09243872 -37.11811198 131.37786562 -26.25 128.375 C-15.80776973 124.81118394 -7.70786497 117.58662358 -2.625 107.75 C1.93819791 98.14744439 1.75205014 83.75615042 -1.5625 73.8125 C-5.78814011 64.31968877 -13.58884624 55.59080671 -23 51 C-39.63892172 45.14556458 -56.37383461 49.50683302 -68.1875 62.25 Z " fill="#F90D45" transform="translate(384,0)"/>
<path d="M0 0 C0.67417969 0.25523438 1.34835937 0.51046875 2.04296875 0.7734375 C9.77512944 4.13793058 16.00535481 10.34047308 21 17 C21.33 11.39 21.66 5.78 22 0 C26.29 0 30.58 0 35 0 C35 33.66 35 67.32 35 102 C30.71 102 26.42 102 22 102 C21.67 96.72 21.34 91.44 21 86 C17.58326114 89.4134028 17.58326114 89.4134028 14.18359375 92.84375 C3.34360197 103.12597934 -9.30397094 104.4695964 -23.515625 104.2734375 C-36.71062901 103.82411336 -47.20611109 96.68879576 -56.12109375 87.26953125 C-65.82326296 75.55027905 -69.84693032 61.38574567 -69.31640625 46.30859375 C-67.79794157 30.43032725 -60.45949709 18.52825127 -48.73828125 7.9609375 C-35.0784264 -3.24348096 -16.57614268 -6.58465081 0 0 Z M-47.39453125 25.78515625 C-54.83170178 36.04519442 -56.05088951 46.60612829 -55 59 C-53.214339 68.69033869 -48.32426806 77.58563223 -40.69140625 83.9140625 C-38.51104222 85.40685811 -36.31960691 86.73671966 -34 88 C-32.9275 88.598125 -31.855 89.19625 -30.75 89.8125 C-21.23288614 93.9221628 -10.20550406 92.82782784 -0.71875 89.2578125 C9.08630199 84.72156718 17.22342406 76.17239003 21 66 C23.69853744 56.03340173 23.76534522 41.24381347 19 32 C12.23280992 20.73690663 3.76569986 13.57561319 -9 10 C-24.87204658 7.96057502 -37.30081851 13.75123328 -47.39453125 25.78515625 Z " fill="#F90D45" transform="translate(786,38)"/>
<path d="M0 0 C12.32475711 10.67030253 20.20659935 23.41588958 21.65625 39.875 C22.29835054 56.73531737 16.79706736 71.40392782 5.33984375 83.8046875 C-4.77481085 93.40597828 -16.7176764 97.82753401 -30.59765625 98.2421875 C-44.44707726 97.82844694 -56.79518739 93.42643991 -66.66015625 83.5546875 C-70.59655967 79.32391961 -73.99886756 75.15882691 -76.59765625 69.9921875 C-76.96375 69.27417969 -77.32984375 68.55617188 -77.70703125 67.81640625 C-84.81196607 52.91148864 -83.80345903 37.33389913 -78.59765625 21.9921875 C-73.19141958 9.86512774 -62.86702252 -0.86564338 -50.73046875 -6.2890625 C-33.74622746 -12.73294809 -14.67264124 -11.3409588 0 0 Z M-59.84765625 17.3046875 C-68.48101368 27.95810628 -69.69067493 39.7568915 -68.59765625 52.9921875 C-66.47382514 64.34061036 -60.29243585 72.76884394 -51.03125 79.484375 C-42.42206567 84.81847636 -33.62141907 86.28015702 -23.59765625 84.9921875 C-11.39633704 81.57465471 -2.67174468 74.76241703 3.625 63.87890625 C8.7487466 54.1272595 8.95448679 41.53784672 6.75390625 30.83984375 C2.48324285 19.28715174 -6.81397956 10.48575865 -17.59765625 4.9921875 C-33.32825946 -0.48090256 -49.12396553 5.70335458 -59.84765625 17.3046875 Z " fill="#F90C45" transform="translate(252.59765625,45.0078125)"/>
<path d="M0 0 C8.60545502 6.16193076 13.51047483 15.3274537 15.34716797 25.63378906 C16.51764243 33.05776379 16.50242905 40.43130833 16.4453125 47.921875 C16.44157184 49.38445846 16.43872986 50.84704446 16.43673706 52.30963135 C16.4291833 56.11701657 16.40960824 59.92424367 16.3873291 63.73156738 C16.36669032 67.63352318 16.35769721 71.53550509 16.34765625 75.4375 C16.3263525 83.06257966 16.29124024 90.68749733 16.25 98.3125 C11.96 98.3125 7.67 98.3125 3.25 98.3125 C3.220271 95.39990356 3.220271 95.39990356 3.18994141 92.4284668 C3.12185304 85.97435172 3.04505566 79.5203849 2.96247292 73.06643963 C2.91277233 69.15785375 2.86644272 65.24929153 2.828125 61.34057617 C2.79093727 57.56030643 2.7444925 53.78024831 2.69193649 50.00016212 C2.67356862 48.56630013 2.65839758 47.13239309 2.64665604 45.69846153 C2.76420563 27.61922996 2.76420563 27.61922996 -5.75 12.3125 C-12.59142884 7.01683332 -21.52323856 7.3281012 -29.75 8.3125 C-37.64282693 10.51909678 -43.21245823 15.61710503 -47.75 22.3125 C-53.48815756 33.16075807 -53.89661277 43.31834071 -54.06640625 55.34375 C-54.08718735 56.57540894 -54.10796844 57.80706787 -54.12937927 59.0760498 C-54.19446188 62.98814626 -54.25356693 66.90030656 -54.3125 70.8125 C-54.35523899 73.47397345 -54.39934002 76.13542217 -54.44335938 78.796875 C-54.55010072 85.30201887 -54.65148325 91.80722659 -54.75 98.3125 C-59.04 98.3125 -63.33 98.3125 -67.75 98.3125 C-67.75 64.9825 -67.75 31.6525 -67.75 -2.6875 C-63.46 -2.6875 -59.17 -2.6875 -54.75 -2.6875 C-54.42 2.2625 -54.09 7.2125 -53.75 12.3125 C-52.38875 10.806875 -51.0275 9.30125 -49.625 7.75 C-36.06314611 -5.8893502 -16.94830661 -10.4013855 0 0 Z " fill="#F90F47" transform="translate(677.75,40.6875)"/>
<path d="M0 0 C-0.63065757 3.21852831 -1.78020695 5.50801069 -3.5625 8.25 C-4.01753906 8.95640625 -4.47257813 9.6628125 -4.94140625 10.390625 C-5.46541016 11.18726563 -5.46541016 11.18726563 -6 12 C-6.59425781 11.84273437 -7.18851563 11.68546875 -7.80078125 11.5234375 C-14.04897483 10.03630084 -18.47472409 11.07536598 -23.85546875 14.3203125 C-30.76012556 19.7283315 -34.34770916 28.42480918 -35.55664062 36.90429688 C-36.18927107 43.10117096 -36.21194195 49.30730528 -36.28125 55.53125 C-36.31900716 58.14062505 -36.35676767 60.75000005 -36.39453125 63.359375 C-36.44003641 66.76267411 -36.48319912 70.16600264 -36.52606201 73.56933594 C-36.58495154 78.22339286 -36.65100083 82.87731175 -36.71875 87.53125 C-36.73232544 88.76653442 -36.74590088 90.00181885 -36.7598877 91.27453613 C-36.77660522 92.40661499 -36.79332275 93.53869385 -36.81054688 94.70507812 C-36.82307495 95.70607544 -36.83560303 96.70707275 -36.84851074 97.73840332 C-37 100 -37 100 -38 101 C-42.29 101 -46.58 101 -51 101 C-51 67.67 -51 34.34 -51 0 C-46.38 0 -41.76 0 -37 0 C-36.67 3.63 -36.34 7.26 -36 11 C-34.865625 9.783125 -33.73125 8.56625 -32.5625 7.3125 C-22.83747526 -2.42979832 -12.83246183 -5.40314182 0 0 Z " fill="#F90C45" transform="translate(594,38)"/>
<path d="M0 0 C4.77862767 4.42160376 8.98474136 9.72891566 11 16 C11 17.65 11 19.3 11 21 C-13.09 21 -37.18 21 -62 21 C-58.55804263 9.52680878 -53.51520147 0.72730046 -42.8046875 -5.21875 C-28.34279068 -12.08202307 -12.60020623 -9.52541188 0 0 Z " fill="#FEFDFD" transform="translate(497,57)"/>
<path d="M0 0 C1.51683632 -0.01429802 1.51683632 -0.01429802 3.0643158 -0.02888489 C4.16014481 -0.02797348 5.25597382 -0.02706207 6.38500977 -0.02612305 C7.50706314 -0.03040817 8.62911652 -0.0346933 9.78517151 -0.03910828 C12.16162439 -0.04485945 14.53809488 -0.04534608 16.91455078 -0.04101562 C20.55800315 -0.03785776 24.20064239 -0.06129873 27.84399414 -0.08666992 C30.14933165 -0.08894297 32.45467136 -0.08964639 34.76000977 -0.08862305 C36.40071693 -0.10243767 36.40071693 -0.10243767 38.0745697 -0.11653137 C39.59613426 -0.10718819 39.59613426 -0.10718819 41.1484375 -0.09765625 C42.04175278 -0.09828568 42.93506805 -0.0989151 43.85545349 -0.0995636 C46.61718986 0.35303939 47.50571876 1.0312052 49.13891602 3.2746582 C49.77784307 8.38607462 49.77784307 8.38607462 47.94084167 10.94087219 C45.50525454 12.74369465 43.94767599 12.63671588 40.93310547 12.61523438 C39.87223221 12.61500778 38.81135895 12.61478119 37.71833801 12.61454773 C36.00259834 12.59132195 36.00259834 12.59132195 34.25219727 12.56762695 C33.08005173 12.56338211 31.90790619 12.55913727 30.70024109 12.55476379 C26.95040068 12.53794893 23.20109445 12.50029053 19.45141602 12.4621582 C16.91171023 12.44711504 14.37199603 12.433426 11.83227539 12.42114258 C5.60097283 12.38803616 -0.63001742 12.33780849 -6.86108398 12.2746582 C-6.91503877 10.65001978 -6.95385593 9.02487279 -6.98608398 7.3996582 C-7.00928711 6.49473633 -7.03249023 5.58981445 -7.05639648 4.6574707 C-6.67256726 -0.02524586 -4.02296335 0.02076746 0 0 Z " fill="#B3FFF4" transform="translate(6.861083984375,181.725341796875)"/>
<path d="M0 0 C2.20117188 -0.38095093 2.20117188 -0.38095093 4.96875 -0.38818359 C6.00322266 -0.39764008 7.03769531 -0.40709656 8.10351562 -0.4168396 C9.78477539 -0.40773056 9.78477539 -0.40773056 11.5 -0.3984375 C12.64662109 -0.40130768 13.79324219 -0.40417786 14.97460938 -0.40713501 C17.40234876 -0.40917933 19.83010449 -0.40362393 22.2578125 -0.39111328 C25.98474784 -0.37506567 29.71059859 -0.39095049 33.4375 -0.41015625 C35.79166907 -0.40817388 38.14583747 -0.40433035 40.5 -0.3984375 C42.18125977 -0.40754654 42.18125977 -0.40754654 43.89648438 -0.4168396 C45.44819336 -0.40265488 45.44819336 -0.40265488 47.03125 -0.38818359 C48.40120117 -0.38460342 48.40120117 -0.38460342 49.79882812 -0.38095093 C50.8884082 -0.19238022 50.8884082 -0.19238022 52 0 C54.31332486 3.46998729 54.33957563 4.92509248 54 9 C53.34 9.99 52.68 10.98 52 12 C49.79882812 12.3742218 49.79882812 12.3742218 47.03125 12.37231445 C45.99677734 12.37854324 44.96230469 12.38477203 43.89648438 12.39118958 C42.77564453 12.38197983 41.65480469 12.37277008 40.5 12.36328125 C38.78006836 12.36402901 38.78006836 12.36402901 37.02539062 12.36479187 C34.59763865 12.36244812 32.1698844 12.35270204 29.7421875 12.33618164 C26.01540514 12.31259749 22.28933794 12.31561759 18.5625 12.32226562 C16.20832905 12.31668897 13.85416112 12.30957917 11.5 12.30078125 C9.81874023 12.30214836 9.81874023 12.30214836 8.10351562 12.30354309 C7.06904297 12.29401108 6.03457031 12.28447906 4.96875 12.2746582 C4.05544922 12.27005081 3.14214844 12.26544342 2.20117188 12.26069641 C0 12 0 12 -2 10 C-2.31537716 5.66356399 -2.44897847 3.67346771 0 0 Z " fill="#5AEEF7" transform="translate(632,182)"/>
<path d="M0 0 C1.51683632 -0.01429802 1.51683632 -0.01429802 3.0643158 -0.02888489 C4.16014481 -0.02797348 5.25597382 -0.02706207 6.38500977 -0.02612305 C7.50706314 -0.03040817 8.62911652 -0.0346933 9.78517151 -0.03910828 C12.16162439 -0.04485945 14.53809488 -0.04534608 16.91455078 -0.04101562 C20.55800315 -0.03785776 24.20064239 -0.06129873 27.84399414 -0.08666992 C30.14933165 -0.08894297 32.45467136 -0.08964639 34.76000977 -0.08862305 C36.40071693 -0.10243767 36.40071693 -0.10243767 38.0745697 -0.11653137 C39.59613426 -0.10718819 39.59613426 -0.10718819 41.1484375 -0.09765625 C42.04175278 -0.09828568 42.93506805 -0.0989151 43.85545349 -0.0995636 C46.61650366 0.35292693 47.50922927 1.02878624 49.13891602 3.2746582 C49.56370187 7.35260245 49.45174189 8.8054194 47.13891602 12.2746582 C44.93774414 12.65560913 44.93774414 12.65560913 42.17016602 12.6628418 C41.13569336 12.67229828 40.1012207 12.68175476 39.03540039 12.6914978 C37.35414063 12.68238876 37.35414063 12.68238876 35.63891602 12.6730957 C33.91898438 12.67740097 33.91898438 12.67740097 32.16430664 12.68179321 C29.73656725 12.68383753 27.30881153 12.67828214 24.88110352 12.66577148 C21.15416817 12.64972388 17.42831742 12.6656087 13.70141602 12.68481445 C11.34724694 12.68283209 8.99307855 12.67898855 6.63891602 12.6730957 C5.51807617 12.6791684 4.39723633 12.68524109 3.24243164 12.6914978 C1.69072266 12.67731308 1.69072266 12.67731308 0.10766602 12.6628418 C-1.26228516 12.65926163 -1.26228516 12.65926163 -2.65991211 12.65560913 C-3.74949219 12.46703842 -3.74949219 12.46703842 -4.86108398 12.2746582 C-7.31006246 8.60119049 -7.17646115 6.61109421 -6.86108398 2.2746582 C-4.34012128 -0.2463045 -3.48865176 0.01800922 0 0 Z " fill="#91FFF2" transform="translate(216.861083984375,181.725341796875)"/>
<path d="M0 0 C1.01437637 -0.00622879 2.02875275 -0.01245758 3.0738678 -0.01887512 C4.16767258 -0.00966537 5.26147736 -0.00045563 6.38842773 0.0090332 C8.07294289 0.00828545 8.07294289 0.00828545 9.79148865 0.00752258 C12.16618621 0.00986402 14.5408862 0.01959654 16.91552734 0.03613281 C20.56101534 0.05974317 24.20577327 0.05669185 27.85131836 0.05004883 C30.1553592 0.05562476 32.45939695 0.0627341 34.76342773 0.0715332 C36.40717125 0.07016609 36.40717125 0.07016609 38.0841217 0.06877136 C39.09534592 0.07830338 40.10657013 0.08783539 41.1484375 0.09765625 C42.04095718 0.10226364 42.93347687 0.10687103 43.8530426 0.11161804 C46.00952148 0.37231445 46.00952148 0.37231445 48.00952148 2.37231445 C48.32489865 6.70875046 48.45849996 8.69884674 46.00952148 12.37231445 C43.80834961 12.75326538 43.80834961 12.75326538 41.04077148 12.76049805 C40.00629883 12.76995453 38.97182617 12.77941101 37.90600586 12.78915405 C36.22474609 12.78004501 36.22474609 12.78004501 34.50952148 12.77075195 C32.78958984 12.77505722 32.78958984 12.77505722 31.03491211 12.77944946 C28.60717272 12.78149378 26.179417 12.77593839 23.75170898 12.76342773 C20.02477364 12.74738013 16.29892289 12.76326495 12.57202148 12.7824707 C10.21785241 12.78048834 7.86368402 12.7766448 5.50952148 12.77075195 C4.38868164 12.77682465 3.2678418 12.78289734 2.11303711 12.78915405 C0.56132813 12.77496933 0.56132813 12.77496933 -1.02172852 12.76049805 C-2.39167969 12.75691788 -2.39167969 12.75691788 -3.78930664 12.75326538 C-4.87888672 12.56469467 -4.87888672 12.56469467 -5.99047852 12.37231445 C-8.30330439 8.90307565 -8.41526437 7.4502587 -7.99047852 3.37231445 C-5.68209045 0.19112393 -3.81721012 -0.00268959 0 0 Z " fill="#A7FFF6" transform="translate(74.990478515625,181.627685546875)"/>
<path d="M0 0 C2.15647888 -0.38095093 2.15647888 -0.38095093 4.86108398 -0.38818359 C6.3779203 -0.40236832 6.3779203 -0.40236832 7.92539978 -0.4168396 C9.02122879 -0.41076691 10.1170578 -0.40469421 11.24609375 -0.3984375 C12.36814713 -0.40130768 13.4902005 -0.40417786 14.64625549 -0.40713501 C17.02272037 -0.40917942 19.39920193 -0.40362335 21.77563477 -0.39111328 C25.41916484 -0.37508068 29.06158298 -0.39094236 32.70507812 -0.41015625 C35.01041912 -0.40817359 37.31575943 -0.40432945 39.62109375 -0.3984375 C40.71489853 -0.40451019 41.80870331 -0.41058289 42.93565369 -0.4168396 C44.45721825 -0.40265488 44.45721825 -0.40265488 46.00952148 -0.38818359 C47.3494944 -0.38460342 47.3494944 -0.38460342 48.71653748 -0.38095093 C51.47418804 0.07910897 52.37076041 0.75608236 54 3 C54.42478586 7.07794425 54.31282587 8.53076119 52 12 C49.79882812 12.38095093 49.79882812 12.38095093 47.03125 12.38818359 C45.99677734 12.39764008 44.96230469 12.40709656 43.89648438 12.4168396 C42.21522461 12.40773056 42.21522461 12.40773056 40.5 12.3984375 C38.78006836 12.40274277 38.78006836 12.40274277 37.02539062 12.40713501 C34.59765124 12.40917933 32.16989551 12.40362393 29.7421875 12.39111328 C26.01525216 12.37506567 22.28940141 12.39095049 18.5625 12.41015625 C16.20833093 12.40817388 13.85416253 12.40433035 11.5 12.3984375 C10.37916016 12.40451019 9.25832031 12.41058289 8.10351562 12.4168396 C6.55180664 12.40265488 6.55180664 12.40265488 4.96875 12.38818359 C3.59879883 12.38460342 3.59879883 12.38460342 2.20117188 12.38095093 C1.1115918 12.19238022 1.1115918 12.19238022 0 12 C-2.31332486 8.53001271 -2.33957563 7.07490752 -2 3 C-1.34 2.01 -0.68 1.02 0 0 Z " fill="#72FAF5" transform="translate(422,182)"/>
<path d="M0 0 C1.01437637 -0.00622879 2.02875275 -0.01245758 3.0738678 -0.01887512 C4.16767258 -0.00966537 5.26147736 -0.00045563 6.38842773 0.0090332 C8.07294289 0.00828545 8.07294289 0.00828545 9.79148865 0.00752258 C12.16618621 0.00986402 14.5408862 0.01959654 16.91552734 0.03613281 C20.56101534 0.05974317 24.20577327 0.05669185 27.85131836 0.05004883 C30.1553592 0.05562476 32.45939695 0.0627341 34.76342773 0.0715332 C36.40717125 0.07016609 36.40717125 0.07016609 38.0841217 0.06877136 C39.09534592 0.07830338 40.10657013 0.08783539 41.1484375 0.09765625 C42.04095718 0.10226364 42.93347687 0.10687103 43.8530426 0.11161804 C46.00952148 0.37231445 46.00952148 0.37231445 48.00952148 2.37231445 C48.27514648 4.24731445 48.27514648 4.24731445 48.25952148 6.37231445 C48.26725586 7.42418945 48.26725586 7.42418945 48.27514648 8.49731445 C48.00952148 10.37231445 48.00952148 10.37231445 46.00952148 12.37231445 C43.8530426 12.63301086 43.8530426 12.63301086 41.1484375 12.64697266 C40.13721329 12.65650467 39.12598907 12.66603668 38.0841217 12.67585754 C36.98829269 12.67494614 35.89246368 12.67403473 34.76342773 12.6730957 C33.64137436 12.67738083 32.51932098 12.68166595 31.36326599 12.68608093 C28.98681311 12.69183211 26.61034262 12.69231873 24.23388672 12.68798828 C20.59043435 12.68483041 16.94779511 12.70827139 13.30444336 12.73364258 C10.99910585 12.73591562 8.69376614 12.73661904 6.38842773 12.7355957 C4.74772057 12.74941032 4.74772057 12.74941032 3.0738678 12.76350403 C2.05949142 12.75727524 1.04511505 12.75104645 0 12.74462891 C-0.89331528 12.74525833 -1.78663055 12.74588776 -2.70701599 12.74653625 C-5.46875236 12.29393327 -6.35728126 11.61576746 -7.99047852 9.37231445 C-8.6305702 4.25158095 -8.6305702 4.25158095 -6.77894592 1.70808411 C-4.40719394 -0.06332884 -2.94514039 -0.00207513 0 0 Z " fill="#86FFF6" transform="translate(284.990478515625,181.627685546875)"/>
<path d="M0 0 C1.0144519 -0.00630432 2.02890381 -0.01260864 3.07409668 -0.019104 C4.72254578 -0.01303131 4.72254578 -0.01303131 6.40429688 -0.00683594 C7.52872192 -0.00874939 8.65314697 -0.01066284 9.81164551 -0.01263428 C12.1923037 -0.01399711 14.57296931 -0.01029388 16.95361328 -0.00195312 C20.60791641 0.00874477 24.26172788 -0.00184538 27.91601562 -0.01464844 C30.22461047 -0.01332686 32.533205 -0.01076451 34.84179688 -0.00683594 C35.94076294 -0.0108844 37.039729 -0.01493286 38.17199707 -0.019104 C39.18644897 -0.01279968 40.20090088 -0.00649536 41.24609375 0 C42.58939758 0.00238678 42.58939758 0.00238678 43.95983887 0.00482178 C46.12304688 0.25878906 46.12304688 0.25878906 48.12304688 2.25878906 C48.38867188 4.13378906 48.38867188 4.13378906 48.37304688 6.25878906 C48.38078125 7.31066406 48.38078125 7.31066406 48.38867188 8.38378906 C48.12304688 10.25878906 48.12304688 10.25878906 46.12304688 12.25878906 C43.96656799 12.5262146 43.96656799 12.5262146 41.26196289 12.54931641 C40.25073868 12.56207611 39.23951447 12.57483582 38.19764709 12.58798218 C37.10181808 12.59020782 36.00598907 12.59243347 34.87695312 12.59472656 C33.19387306 12.60471176 33.19387306 12.60471176 31.47679138 12.61489868 C29.10034834 12.62503805 26.72387676 12.62971531 24.34741211 12.62939453 C20.70378908 12.63376717 17.06137723 12.6700736 13.41796875 12.70800781 C11.11263437 12.71387566 8.80729421 12.71784527 6.50195312 12.71972656 C4.86124596 12.74128311 4.86124596 12.74128311 3.18739319 12.76327515 C2.17301682 12.75712189 1.15864044 12.75096863 0.11352539 12.74462891 C-0.77978989 12.74747894 -1.67310516 12.75032898 -2.5934906 12.75326538 C-4.87695312 12.25878906 -4.87695312 12.25878906 -6.70057678 10.42373657 C-8.3595637 7.37061533 -7.80263526 5.53427968 -6.87695312 2.25878906 C-4.35080462 -0.26735944 -3.496197 0.00621204 0 0 Z " fill="#53E9F6" transform="translate(704.876953125,181.7412109375)"/>
<path d="M0 0 C1.0144519 -0.00630432 2.02890381 -0.01260864 3.07409668 -0.019104 C4.72254578 -0.01303131 4.72254578 -0.01303131 6.40429688 -0.00683594 C7.52872192 -0.00874939 8.65314697 -0.01066284 9.81164551 -0.01263428 C12.1923037 -0.01399711 14.57296931 -0.01029388 16.95361328 -0.00195312 C20.60791641 0.00874477 24.26172788 -0.00184538 27.91601562 -0.01464844 C30.22461047 -0.01332686 32.533205 -0.01076451 34.84179688 -0.00683594 C35.94076294 -0.0108844 37.039729 -0.01493286 38.17199707 -0.019104 C39.18644897 -0.01279968 40.20090088 -0.00649536 41.24609375 0 C42.58939758 0.00238678 42.58939758 0.00238678 43.95983887 0.00482178 C46.12304688 0.25878906 46.12304688 0.25878906 48.12304688 2.25878906 C48.38867188 4.13378906 48.38867188 4.13378906 48.37304688 6.25878906 C48.38078125 7.31066406 48.38078125 7.31066406 48.38867188 8.38378906 C48.12304688 10.25878906 48.12304688 10.25878906 46.12304688 12.25878906 C43.95983887 12.51275635 43.95983887 12.51275635 41.24609375 12.51757812 C39.72441589 12.52703461 39.72441589 12.52703461 38.17199707 12.53668213 C37.07303101 12.53263367 35.97406494 12.52858521 34.84179688 12.52441406 C33.71737183 12.52632751 32.59294678 12.52824097 31.43444824 12.5302124 C29.05379005 12.53157523 26.67312444 12.52787201 24.29248047 12.51953125 C20.63817734 12.50883336 16.98436587 12.51942351 13.33007812 12.53222656 C11.02148328 12.53090499 8.71288875 12.52834263 6.40429688 12.52441406 C4.75584778 12.53048676 4.75584778 12.53048676 3.07409668 12.53668213 C1.55241882 12.52722565 1.55241882 12.52722565 0 12.51757812 C-1.34330383 12.51519135 -1.34330383 12.51519135 -2.71374512 12.51275635 C-4.87695312 12.25878906 -4.87695312 12.25878906 -6.87695312 10.25878906 C-7.14257812 8.38378906 -7.14257812 8.38378906 -7.12695312 6.25878906 C-7.13210938 5.55753906 -7.13726563 4.85628906 -7.14257812 4.13378906 C-6.53026033 -0.18845421 -3.64976818 0.0064849 0 0 Z " fill="#49DEFC" transform="translate(775.876953125,181.7412109375)"/>
<path d="M0 0 C1.0144519 -0.00630432 2.02890381 -0.01260864 3.07409668 -0.019104 C4.72254578 -0.01303131 4.72254578 -0.01303131 6.40429688 -0.00683594 C7.52872192 -0.00874939 8.65314697 -0.01066284 9.81164551 -0.01263428 C12.1923037 -0.01399711 14.57296931 -0.01029388 16.95361328 -0.00195312 C20.60791641 0.00874477 24.26172788 -0.00184538 27.91601562 -0.01464844 C30.22461047 -0.01332686 32.533205 -0.01076451 34.84179688 -0.00683594 C35.94076294 -0.0108844 37.039729 -0.01493286 38.17199707 -0.019104 C39.18644897 -0.01279968 40.20090088 -0.00649536 41.24609375 0 C42.58939758 0.00238678 42.58939758 0.00238678 43.95983887 0.00482178 C46.12304688 0.25878906 46.12304688 0.25878906 48.12304688 2.25878906 C48.38867188 4.13378906 48.38867188 4.13378906 48.37304688 6.25878906 C48.38078125 7.31066406 48.38078125 7.31066406 48.38867188 8.38378906 C48.12304688 10.25878906 48.12304688 10.25878906 46.12304688 12.25878906 C43.95983887 12.51275635 43.95983887 12.51275635 41.24609375 12.51757812 C39.72441589 12.52703461 39.72441589 12.52703461 38.17199707 12.53668213 C37.07303101 12.53263367 35.97406494 12.52858521 34.84179688 12.52441406 C33.71737183 12.52632751 32.59294678 12.52824097 31.43444824 12.5302124 C29.05379005 12.53157523 26.67312444 12.52787201 24.29248047 12.51953125 C20.63817734 12.50883336 16.98436587 12.51942351 13.33007812 12.53222656 C11.02148328 12.53090499 8.71288875 12.52834263 6.40429688 12.52441406 C4.75584778 12.53048676 4.75584778 12.53048676 3.07409668 12.53668213 C1.55241882 12.52722565 1.55241882 12.52722565 0 12.51757812 C-1.34330383 12.51519135 -1.34330383 12.51519135 -2.71374512 12.51275635 C-4.87695312 12.25878906 -4.87695312 12.25878906 -6.87695312 10.25878906 C-7.14257812 8.38378906 -7.14257812 8.38378906 -7.12695312 6.25878906 C-7.13210938 5.55753906 -7.13726563 4.85628906 -7.14257812 4.13378906 C-6.53026033 -0.18845421 -3.64976818 0.0064849 0 0 Z " fill="#61F3F8" transform="translate(565.876953125,181.7412109375)"/>
<path d="M0 0 C1.0144519 -0.00630432 2.02890381 -0.01260864 3.07409668 -0.019104 C4.72254578 -0.01303131 4.72254578 -0.01303131 6.40429688 -0.00683594 C7.52872192 -0.00874939 8.65314697 -0.01066284 9.81164551 -0.01263428 C12.1923037 -0.01399711 14.57296931 -0.01029388 16.95361328 -0.00195312 C20.60791641 0.00874477 24.26172788 -0.00184538 27.91601562 -0.01464844 C30.22461047 -0.01332686 32.533205 -0.01076451 34.84179688 -0.00683594 C35.94076294 -0.0108844 37.039729 -0.01493286 38.17199707 -0.019104 C39.18644897 -0.01279968 40.20090088 -0.00649536 41.24609375 0 C42.58939758 0.00238678 42.58939758 0.00238678 43.95983887 0.00482178 C46.12304688 0.25878906 46.12304688 0.25878906 48.12304688 2.25878906 C48.43842404 6.59522507 48.57202535 8.58532135 46.12304688 12.25878906 C43.95983887 12.62628174 43.95983887 12.62628174 41.24609375 12.61523438 C40.23164185 12.61823547 39.21718994 12.62123657 38.17199707 12.62432861 C37.07303101 12.61198181 35.97406494 12.59963501 34.84179688 12.58691406 C33.71737183 12.58504089 32.59294678 12.58316772 31.43444824 12.58123779 C29.05376223 12.57450616 26.67308747 12.56056983 24.29248047 12.54003906 C20.63824241 12.50891847 16.98443547 12.49907328 13.33007812 12.49316406 C11.02147909 12.4839931 8.71288446 12.47361704 6.40429688 12.46191406 C5.30533081 12.45766418 4.20636475 12.45341431 3.07409668 12.44903564 C1.55241882 12.43462433 1.55241882 12.43462433 0 12.41992188 C-0.89553589 12.41309387 -1.79107178 12.40626587 -2.71374512 12.39923096 C-4.87695312 12.25878906 -4.87695312 12.25878906 -6.87695312 11.25878906 C-6.93095049 9.80086022 -6.96974489 8.34236194 -7.00195312 6.88378906 C-7.03675781 5.665625 -7.03675781 5.665625 -7.07226562 4.42285156 C-6.6619764 -0.12315302 -3.84306895 0.00682836 0 0 Z " fill="#69F7F8" transform="translate(494.876953125,181.7412109375)"/>
<path d="M0 0 C1.0144519 -0.00630432 2.02890381 -0.01260864 3.07409668 -0.019104 C4.72254578 -0.01303131 4.72254578 -0.01303131 6.40429688 -0.00683594 C7.52872192 -0.00874939 8.65314697 -0.01066284 9.81164551 -0.01263428 C12.1923037 -0.01399711 14.57296931 -0.01029388 16.95361328 -0.00195312 C20.60791641 0.00874477 24.26172788 -0.00184538 27.91601562 -0.01464844 C30.22461047 -0.01332686 32.533205 -0.01076451 34.84179688 -0.00683594 C35.94076294 -0.0108844 37.039729 -0.01493286 38.17199707 -0.019104 C39.18644897 -0.01279968 40.20090088 -0.00649536 41.24609375 0 C42.58939758 0.00238678 42.58939758 0.00238678 43.95983887 0.00482178 C46.12304688 0.25878906 46.12304688 0.25878906 48.12304688 2.25878906 C48.38867188 4.13378906 48.38867188 4.13378906 48.37304688 6.25878906 C48.38078125 7.31066406 48.38078125 7.31066406 48.38867188 8.38378906 C48.12304688 10.25878906 48.12304688 10.25878906 46.12304688 12.25878906 C43.95983887 12.51275635 43.95983887 12.51275635 41.24609375 12.51757812 C39.72441589 12.52703461 39.72441589 12.52703461 38.17199707 12.53668213 C37.07303101 12.53263367 35.97406494 12.52858521 34.84179688 12.52441406 C33.71737183 12.52632751 32.59294678 12.52824097 31.43444824 12.5302124 C29.05379005 12.53157523 26.67312444 12.52787201 24.29248047 12.51953125 C20.63817734 12.50883336 16.98436587 12.51942351 13.33007812 12.53222656 C11.02148328 12.53090499 8.71288875 12.52834263 6.40429688 12.52441406 C4.75584778 12.53048676 4.75584778 12.53048676 3.07409668 12.53668213 C1.55241882 12.52722565 1.55241882 12.52722565 0 12.51757812 C-1.34330383 12.51519135 -1.34330383 12.51519135 -2.71374512 12.51275635 C-4.87695312 12.25878906 -4.87695312 12.25878906 -6.87695312 10.25878906 C-7.14257812 8.38378906 -7.14257812 8.38378906 -7.12695312 6.25878906 C-7.13210938 5.55753906 -7.13726562 4.85628906 -7.14257812 4.13378906 C-6.53026033 -0.18845421 -3.64976818 0.0064849 0 0 Z " fill="#7BFCF7" transform="translate(355.876953125,181.7412109375)"/>
<path d="M0 0 C1.0144519 -0.00630432 2.02890381 -0.01260864 3.07409668 -0.019104 C4.72254578 -0.01303131 4.72254578 -0.01303131 6.40429688 -0.00683594 C7.52872192 -0.00874939 8.65314697 -0.01066284 9.81164551 -0.01263428 C12.1923037 -0.01399711 14.57296931 -0.01029388 16.95361328 -0.00195312 C20.60791641 0.00874477 24.26172788 -0.00184538 27.91601562 -0.01464844 C30.22461047 -0.01332686 32.533205 -0.01076451 34.84179688 -0.00683594 C35.94076294 -0.0108844 37.039729 -0.01493286 38.17199707 -0.019104 C39.18644897 -0.01279968 40.20090088 -0.00649536 41.24609375 0 C42.58939758 0.00238678 42.58939758 0.00238678 43.95983887 0.00482178 C46.12304688 0.25878906 46.12304688 0.25878906 48.12304688 2.25878906 C48.38867188 4.13378906 48.38867188 4.13378906 48.37304688 6.25878906 C48.38078125 7.31066406 48.38078125 7.31066406 48.38867188 8.38378906 C48.12304688 10.25878906 48.12304688 10.25878906 46.12304688 12.25878906 C43.95983887 12.51275635 43.95983887 12.51275635 41.24609375 12.51757812 C39.72441589 12.52703461 39.72441589 12.52703461 38.17199707 12.53668213 C37.07303101 12.53263367 35.97406494 12.52858521 34.84179688 12.52441406 C33.71737183 12.52632751 32.59294678 12.52824097 31.43444824 12.5302124 C29.05379005 12.53157523 26.67312444 12.52787201 24.29248047 12.51953125 C20.63817734 12.50883336 16.98436587 12.51942351 13.33007812 12.53222656 C11.02148328 12.53090499 8.71288875 12.52834263 6.40429688 12.52441406 C4.75584778 12.53048676 4.75584778 12.53048676 3.07409668 12.53668213 C1.55241882 12.52722565 1.55241882 12.52722565 0 12.51757812 C-1.34330383 12.51519135 -1.34330383 12.51519135 -2.71374512 12.51275635 C-4.87695312 12.25878906 -4.87695312 12.25878906 -6.87695312 10.25878906 C-7.14257812 8.38378906 -7.14257812 8.38378906 -7.12695312 6.25878906 C-7.13210937 5.55753906 -7.13726562 4.85628906 -7.14257812 4.13378906 C-6.53026033 -0.18845421 -3.64976818 0.0064849 0 0 Z " fill="#9AFFF4" transform="translate(145.876953125,181.7412109375)"/>
<path d="M0 0 C3.8425303 0.72047443 5.45767292 1.57152696 8 4.5625 C8.94237143 8.56143269 8.61136591 11.54355682 6.5 15.0625 C2.98105682 17.17386591 -0.00106731 17.50487143 -4 16.5625 C-6.99097304 14.02017292 -7.84202557 12.4050303 -8.5625 8.5625 C-7.62098494 3.54108633 -5.02141367 0.94151506 0 0 Z " fill="#FEDCE4" transform="translate(844,38.4375)"/>
<path d="M0 0 C3.8425303 0.72047443 5.45767292 1.57152696 8 4.5625 C8.94237143 8.56143269 8.61136591 11.54355682 6.5 15.0625 C2.98105682 17.17386591 -0.00106731 17.50487143 -4 16.5625 C-6.99097304 14.02017292 -7.84202557 12.4050303 -8.5625 8.5625 C-7.62098494 3.54108633 -5.02141367 0.94151506 0 0 Z M-4.875 3.6875 C-6.55468045 6.48696741 -6.45742277 8.36054064 -6 11.5625 C-4.52006844 14.12588689 -4.52006844 14.12588689 -2 15.5625 C1.51359068 15.5625 3.27528132 15.1937066 5.9375 12.875 C7.39615475 9.70028084 7.00471852 7.86371799 6 4.5625 C2.32223404 2.11065603 -0.89875679 1.30175407 -4.875 3.6875 Z " fill="#F93060" transform="translate(844,38.4375)"/>
<path d="M0 0 C3.55930982 -0.32357362 5.41791735 -0.3880551 8.4375 1.625 C10 4 10 4 9.875 7.1875 C9.441875 8.5796875 9.441875 8.5796875 9 10 C8.01 10.495 8.01 10.495 7 11 C5.38050989 8.42786866 4.95591249 7.32330841 5.375 4.25 C5.58125 3.5075 5.7875 2.765 6 2 C3.69 2 1.38 2 -1 2 C-0.67 1.34 -0.34 0.68 0 0 Z " fill="#FEE6EB" transform="translate(841,41)"/>
<path d="M0 0 C1.98 0 3.96 0 6 0 C5.979375 0.928125 5.95875 1.85625 5.9375 2.8125 C5.84230396 6.02286011 5.84230396 6.02286011 7 9 C4.00667261 8.0022242 3.05233685 7.2477975 1 5 C0.67 6.32 0.34 7.64 0 9 C0 6.03 0 3.06 0 0 Z " fill="#FA4671" transform="translate(841,43)"/>
</svg>
