<svg xmlns="http://www.w3.org/2000/svg" width="1200" height="800" viewBox="-149.844 -35.855 1298.648 215.13"><path d="M0 110.16h14.29l-.15-96.65 28.75 96.65h11.19l28.75-96.34v96.34h15.23V1.39H72.87L48.95 82.81 25.17 1.39H0zM149.63 27.5c-21.6 0-35.74 15.07-35.74 42.27 0 27.19 14.14 42.11 35.74 42.11s35.74-14.92 35.74-42.11c0-27.2-14.14-42.27-35.74-42.27zm-20.82 42.26c0-21.29 8.7-30.92 20.82-30.92 12.28 0 20.82 9.63 20.82 30.92s-8.55 30.77-20.82 30.77c-12.12 0-20.82-9.48-20.82-30.77zm72.1 40.4h14.92v-54.7c7.61-11.81 14.61-15.07 21.75-15.07 1.87 0 3.58.15 4.82.62V27.19c-1.09-.31-2.8-.62-4.82-.62-7.46 0-16 5.44-21.75 15.54V29.05h-14.92zm77.22 1.4c8.86 0 15.23-3.42 21.29-8.55v5.9c0 13.83-4.82 22.22-20.51 22.22-8.86 0-16.62-3.26-23.31-7.61l-6.06 11.65c6.37 4.2 18.49 8.23 30.14 8.23 21.45 0 34.96-12.27 34.96-32.32V29.05h-14.76v6.68c-6.06-4.97-12.43-8.24-21.44-8.24-17.56 0-33.25 11.97-33.25 42.11 0 30.31 15.7 41.96 32.94 41.96zm-18.02-41.8c0-22.38 9.32-30.77 20.2-30.77 7.61 0 12.59 2.8 19.11 8.55v44.44c-6.53 5.59-11.65 8.24-19.11 8.39-10.88 0-20.2-8.39-20.2-30.61zm93.85 41.96c8.08 0 16.63-4.04 23.46-9.79 2.17 5.91 7.3 8.7 15.54 8.7 2.02 0 4.04-.47 5.9-.93V98.98c-.93.15-1.87.15-2.8.15-3.42 0-4.97-1.55-4.97-4.97V53.14c0-15.54-9.95-25.8-27.97-25.8-13.67 0-26.1 6.53-34.34 16.78l9.48 8.08c7.15-8.39 15.38-12.9 23.15-12.9 11.97 0 15.07 6.84 15.07 14.92v3.57l-16.16 3.73c-23.62 5.44-31.55 15.38-31.55 27.97.02 11.66 7.95 22.23 25.19 22.23zm-10.41-22.69c0-7.61 4.35-13.05 18.34-16.63l14.6-3.57v23.46c-6.06 5.13-12.9 8.7-19.89 8.7-8.85.01-13.05-5.59-13.05-11.96zm68.68 21.13h15.07V49.25c6.37-6.84 13.21-10.26 20.35-10.26 7.3 0 12.59 4.51 12.59 13.36v57.8h15.07V52.98c0-16.78-9.32-25.64-23.78-25.64-8.55 0-16.78 2.95-24.24 10.1v-8.39h-15.06zm142.18 1.4c20.2 0 37.14-11.03 37.14-30.45 0-19.58-13.21-25.8-35.89-33.25-13.67-4.5-24.24-8.24-24.24-18.96 0-11.34 8.86-16.16 19.73-16.16 11.5 0 20.82 6.53 25.8 17.25l12.27-6.37C581.92 7.46 567.31 0 551.15 0c-19.11 0-35.12 10.88-35.12 29.99 0 18.03 13.05 25.17 33.72 31.7 14.92 4.66 26.26 8.55 26.26 20.51 0 11.65-9.94 16.62-21.6 16.62-13.21 0-23.93-6.37-29.52-17.71l-12.12 7.15c7.61 15.07 23.3 23.3 41.64 23.3zm79.4-12.43c-6.22 0-9.01-2.49-9.01-8.23V40.55h15.23v-11.5H624.8V6.68h-14.92v22.38h-13.36v11.5h13.36v52.68c0 11.34 6.37 17.4 20.82 17.4 2.95 0 5.9-.47 9.32-1.09V98.82c-2.48.31-3.72.31-6.21.31zm40.71 12.59c8.08 0 16.62-4.04 23.46-9.79 2.18 5.91 7.3 8.7 15.54 8.7 2.02 0 4.04-.47 5.9-.93V98.98c-.93.15-1.87.15-2.8.15-3.42 0-4.97-1.55-4.97-4.97V53.14c0-15.54-9.94-25.8-27.97-25.8-13.67 0-26.1 6.53-34.34 16.78l9.48 8.08c7.15-8.39 15.38-12.9 23.15-12.9 11.97 0 15.07 6.84 15.07 14.92v3.57l-16.16 3.73c-23.62 5.44-31.54 15.38-31.54 27.97.01 11.66 7.93 22.23 25.18 22.23zm-10.41-22.69c0-7.61 4.35-13.05 18.34-16.63l14.61-3.57v23.46c-6.06 5.13-12.9 8.7-19.89 8.7-8.87.01-13.06-5.59-13.06-11.96zm68.68 21.13h15.07V49.25c6.37-6.84 13.21-10.26 20.36-10.26 7.3 0 12.59 4.51 12.59 13.36v57.8h15.07V52.98c0-16.78-9.32-25.64-23.77-25.64-8.55 0-16.78 2.95-24.24 10.1v-8.39H732.8v81.11zm104.88-11.5c-5.28 0-7.61-2.18-7.61-7.61V1.39h-14.92v91.52c0 11.19 6.06 17.72 19.27 17.72 2.8 0 5.75-.31 8.55-1.09V98.2c-1.87.31-3.58.46-5.29.46zm80.34-5.12l-11.19-6.53c-5.13 9.32-11.81 13.67-20.67 13.67-11.81 0-20.51-8.08-21.44-27.19h54.23v-5.28c0-26.57-13.52-40.71-33.56-40.71-20.98 0-35.58 14.76-35.58 42.27 0 27.97 14.61 42.11 36.05 42.11 15.69-.01 25.01-6.53 32.16-18.34zm-32.79-54.7c10.41 0 18.02 7.15 19.27 23.77h-39.47c1.71-16.78 9.63-23.77 20.2-23.77zm53.92 92.3c-2.8 0-5.75-.78-9.17-2.33l-4.04 11.5c4.66 2.33 9.17 3.11 14.14 3.11 12.74 0 19.89-6.37 25.02-20.82l33.87-93.54h-14.92l-22.22 64.33-22.69-64.33h-15.69l30.77 83.13-2.18 5.75c-3.57 9.32-6.21 13.2-12.89 13.2z"/></svg>