<svg xmlns="http://www.w3.org/2000/svg" width="179" height="34" viewBox="0 0 179 34"><title>NortonLifeLock-Horizontal-Light-RGB-WEB Copy</title><g fill="none" fill-rule="evenodd"><path fill="#F3B53B" d="M21.24 26.192c-1.851 1.845-4.31 2.86-6.923 2.86-2.612 0-5.07-1.015-6.92-2.857-1.85-1.847-2.868-4.3-2.868-6.907 0-2.606 1.019-5.058 2.867-6.904 1.851-1.844 4.309-2.86 6.92-2.86 2.612 0 5.072 1.016 6.924 2.86 1.847 1.846 2.865 4.298 2.865 6.904 0 2.607-1.018 5.06-2.865 6.904zM14.317 5.006C6.424 5.007 0 11.414 0 19.288c0 7.875 6.424 14.283 14.317 14.284 7.893-.001 14.316-6.409 14.316-14.284 0-7.874-6.423-14.281-14.316-14.282zM29.912 3.92h1.117V2.808h-1.117zM29.912 1.703h1.117V.588h-1.117zM26.772 4.999h1.044V3.912h-1.044z"/><path fill="#0A0B09" d="M24.705 7.087h1.051V6.048h-1.051zM27.816 6.048h1.168V5h-1.168zM23.66 6.048h1.046v-.997H23.66zM26.772 7.087h1.044V6.048h-1.044zM28.809 2.807h1.104V1.703h-1.104zM26.772 3.912h2.037V2.807h-2.037zM25.757 6.048h1.014V3.912h-1.014zM25.757 8.136h-1.052V7.087H22.96v.756h-.934v.932h1.044v1.037h-1.044V8.775h-1.11v1.627h-1.05v1.04h-.696v1.043h-.765c-.86 1.276-3.015 5.251-3.668 6.872-2.347-3.26-4.17-4.553-5.605-5.021-.777-.232-1.71.609-.422 1.934 2.954 3.24 3.885 5.925 4.783 8.067.476 1.128 2.605 1.304 3.034.155.908-2.431 2.227-5.162 3.788-7.403v-1.163h.834V14.88h.877v-1.215h1.048v-1.17h-1.06V11.43h1.06v1.064h1.035l-.004-1.054h.833v-1.27h.933v-.876h.9V7.087h-1.015v1.049M82.013 22.74c-.09.433-.243.827-.457 1.173-.218.35-.515.633-.884.842-.37.21-.828.314-1.366.314-.536 0-.992-.105-1.354-.315-.36-.208-.654-.492-.872-.841-.214-.345-.368-.74-.457-1.173-.087-.427-.132-.87-.132-1.317 0-.447.045-.895.132-1.328.089-.44.243-.836.458-1.174.218-.341.51-.625.87-.84.363-.217.819-.327 1.355-.327.538 0 .998.11 1.367.326.368.216.665.5.883.84.214.34.368.735.457 1.175.088.433.132.88.132 1.328 0 .448-.044.89-.132 1.317zm1.422-5.486c-.49-.494-1.09-.882-1.785-1.152-.695-.272-1.483-.41-2.344-.41-.859 0-1.643.138-2.332.41-.687.27-1.284.658-1.774 1.152-.49.492-.873 1.098-1.14 1.801-.267.704-.401 1.5-.401 2.368 0 .867.134 1.659.402 2.356.266.697.65 1.299 1.14 1.792.49.493 1.086.876 1.773 1.14.689.265 1.473.399 2.332.399.86 0 1.65-.134 2.346-.399.693-.264 1.292-.647 1.783-1.14.49-.494.874-1.095 1.14-1.792.268-.697.403-1.49.403-2.356 0-.866-.135-1.664-.403-2.368-.266-.702-.65-1.308-1.14-1.801zM95.717 16.9c-.289-.375-.69-.672-1.195-.884-.508-.214-1.172-.324-1.973-.324-.627 0-1.25.144-1.85.428-.596.282-1.227.738-1.602 1.358l-.034.056c-.018.028-.04.041-.067.041-.028 0-.04-.013-.04-.041v-1.541h-2.684V26.83h2.836v-5.687c0-1.147.195-1.988.582-2.498.398-.52 1.04-.785 1.91-.785.772 0 1.321.245 1.63.728.298.466.45 1.174.45 2.106v6.136h2.833v-6.693c0-.673-.06-1.296-.18-1.85-.119-.544-.326-1.012-.616-1.388M43.242 22.337l-6.661-10.533h-3.057v15.057h2.812V16.279l.224.347 6.414 10.235h3.08V11.804h-2.812v10.533M55.703 22.74c-.089.433-.242.827-.457 1.173-.218.35-.516.633-.883.842-.37.21-.83.314-1.366.314-.537 0-.992-.105-1.354-.315-.362-.208-.655-.492-.872-.841-.215-.346-.37-.74-.458-1.173-.087-.427-.132-.87-.132-1.317 0-.447.045-.895.132-1.328.089-.44.243-.836.458-1.174.218-.341.51-.625.87-.84.363-.217.819-.327 1.356-.327.537 0 .997.11 1.367.326.367.215.664.5.881.84.216.34.37.735.458 1.175.088.433.132.88.132 1.328 0 .448-.044.89-.132 1.317zm1.423-5.486c-.491-.494-1.092-.882-1.786-1.152-.695-.272-1.483-.41-2.343-.41-.86 0-1.644.138-2.332.41-.687.27-1.284.658-1.774 1.152-.49.492-.874 1.098-1.14 1.801-.268.704-.403 1.5-.403 2.368 0 .867.135 1.659.403 2.356.266.697.65 1.299 1.14 1.792.49.493 1.087.876 1.773 1.14.689.265 1.474.399 2.333.399.86 0 1.648-.134 2.344-.399.694-.264 1.294-.647 1.785-1.14.489-.494.874-1.096 1.14-1.792.267-.697.403-1.49.403-2.356 0-.866-.136-1.664-.404-2.368-.265-.702-.65-1.308-1.14-1.801zM70.791 12.738l-2.834-.027-.03 3.14h-.736s-1.349-.051-2.52.38c-.718.264-1.32.726-1.707 1.427-.075.138-.143.284-.201.442-.01.033-.03.05-.066.05-.034 0-.051-.017-.051-.05v-2.056h-2.683v10.84h2.834v-4.875c0-.506.05-.983.154-1.417.065-.28.164-.537.286-.774.514-.82 1.623-1.638 4.015-1.662h.653l-.062 6.322c-.004.535.081.972.255 1.297.172.324.413.577.716.753.306.18.67.306 1.077.37.417.069.865.104 1.332.109.292.003.603-.002.924-.013.271-.01.525-.03.752-.062l.022-2.118c-.107.016-.216.028-.328.037-.162.013-.332.02-.507.017-.556-.006-.92-.103-1.117-.301-.194-.197-.287-.56-.282-1.112l.052-5.3h2.182v-2.304h-2.16l.03-3.113M102.894 12.95h-3.299v13.842h10.039v-2.551h-6.74V12.95M111.053 26.792h3.057V15.916h-3.057zM111.053 14.41h3.057v-2.606h-3.057zM117.994 12.871c-.465.455-.647 1.167-.647 2.531v.514h-1.68v2.373h1.68v8.503h3.117v-8.503h2.267v-2.353h-2.287v-.435c0-.534.04-.752.141-.87.122-.1.243-.139.649-.139h1.497V12.2h-2.55c-1.194 0-1.72.217-2.187.672M126.578 20.345c.02-1.521.121-1.858.263-1.997.141-.158.465-.197.991-.197h1.68c.628 0 .81.059.932.178.141.158.242.553.242 2.016h-4.108zm3.968-4.429h-3.766c-1.134 0-1.74.178-2.206.653-.729.73-1.013 1.582-1.013 4.785 0 3.203.284 4.053 1.013 4.766.486.494 1.072.672 2.206.672h4.13c1.193 0 1.64-.297 1.983-.634.546-.533.729-1.16.75-2.781h-2.855c-.02.772-.06.864-.162.982-.122.139-.284.198-.91.198h-1.884c-.526 0-.85-.04-.991-.198-.122-.137-.244-.438-.263-2.158h6.62c.363 0 .445-.12.445-.434v-.513c0-3.123-.163-3.973-.891-4.685-.466-.475-1.073-.653-2.206-.653zM137.029 12.95h-1.599v13.842h8.806v-1.344h-7.207V12.95M152.303 25.19c-.223.218-.527.296-1.296.296h-2.51c-.77 0-1.073-.078-1.316-.296-.323-.317-.486-.83-.486-3.697 0-2.847.163-3.362.486-3.678.243-.238.546-.298 1.315-.298h2.511c.769 0 1.073.06 1.296.298.323.316.505.83.505 3.678 0 2.866-.182 3.38-.505 3.697zm-1.135-8.978h-2.834c-1.112 0-1.74.14-2.206.594-.687.673-.93 1.523-.93 4.687 0 3.183.243 4.033.93 4.705.466.455 1.094.594 2.206.594h2.834c1.093 0 1.741-.139 2.187-.594.708-.672.951-1.522.951-4.705 0-3.164-.243-4.014-.95-4.687-.447-.454-1.095-.594-2.188-.594zM162.677 25.21c-.243.217-.507.277-1.175.277h-2.368c-.77 0-1.072-.08-1.315-.297-.324-.316-.486-.83-.486-3.697 0-2.848.162-3.362.486-3.679.243-.237.546-.296 1.315-.296h2.368c.668 0 .911.06 1.134.276.223.218.345.535.405 1.879h1.457c-.04-1.76-.243-2.432-.748-2.927-.405-.395-.872-.533-1.944-.533h-2.833c-1.114 0-1.742.138-2.207.593-.688.673-.931 1.523-.931 4.687 0 3.183.243 4.034.931 4.706.465.453 1.093.593 2.207.593h2.853c1.033 0 1.54-.16 1.924-.534.526-.515.728-1.128.789-3.045h-1.457c-.041 1.344-.162 1.76-.405 1.997M174.609 16.213h-1.801l-3.987 4.627h-1.114v-8.285h-1.498v14.237h1.498v-4.726h1.073l4.109 4.726h1.883l-4.777-5.418 4.614-5.161M178.249 15.742l-.351 1.309-.37-1.309h-.578v1.793h.365v-1.371l.392 1.371h.344l.397-1.371v1.371h.378v-1.793h-.577M175.237 16.036h.483v1.499h.384v-1.499h.477v-.294h-1.344v.294"/></g></svg>