<svg xmlns="http://www.w3.org/2000/svg" height="800" width="1200" viewBox="-29.99895 -29.065 259.9909 174.39"><defs><clipPath clipPathUnits="userSpaceOnUse" id="a"><path d="M363.16 486h-.004c-5.986-.001-12.32-.637-18.746-1.978-26.332-5.492-45.747-20.956-45.753-35.658a16.314 16.314 0 01.343-3.35c1.906-9.136 11.447-15.62 24.7-18.256 2.802 10.807 9.245 35.542 9.245 35.542 1.264 4.892 1.969 6.781 3.22 8.911 1.628 2.752 4.239 5.027 7.899 5.358 1.99.179 4.953-.071 6.61-1.235 1.565-1.098 1.764-2.248 1.713-3.296-.108-2.163-1.431-3.61-3.545-3.61-2.169 0-2.845 1.591-2.855 2.64-.013 1.428.834 1.648.824 2.706-.006.541-.498 1.386-1.853 1.174-1.673-.263-3.066-1.59-3.972-3.904-.213-.538-.474-1.258-.8-2.488l-1.663-6.467h10.971c-1.433-5.196-3.863-14.426-4.543-16.954h-5.542l3.803 14.174h-5.432l-8.678-33.387a76.712 76.712 0 018.772-.474c5.834.012 12.022.644 18.344 1.964 26.393 5.506 46.584 21.115 46.603 35.86a15.769 15.769 0 01-.332 3.251C399.967 478.609 383.571 486 363.164 486h-.004m-48.726-15.449h6.482c9.944 0 10.644-5.075 9.801-8.688-1.041-4.472-3.721-7.661-15.136-7.68l-2.448-9.048h-5.577c1.022 3.772 6.878 25.416 6.878 25.416m50.024-19.426c0 6.137 5.523 11.369 11.427 11.369 2.936 0 5.472-1.364 5.472-3.687 0-2.409-1.918-4.887-4.818-5.827-1.804-.604-3.628-.961-6.689-.961-.073-.644-.044-.893-.044-1.241 0-1.637 1.392-3.034 3.329-3.034 2.599 0 5.051 2.384 5.338 2.673l.966-2.582c-.777-.806-1.643-1.506-2.628-2.017-1.552-.808-3.331-1.243-5.277-1.243-4.219 0-7.076 2.638-7.076 6.55m30.918 11.257c3.079 0 3.541-1.831 3.541-3.251 0-1.667-1.177-2.811-2.525-2.811-1.023 0-1.473.411-1.654.591-.47.47-.549.951-.602 1.351-.067.471-.221.926-.76 1.014-.78.123-1.418-.19-2.08-.778-.895-.796-1.658-2.054-2.215-3.264a15.924 15.924 0 01-.829-2.188l-2.153-7.911h-5.582l4.577 16.954h5.413l-.971-3.398c1.272 1.541 3.652 3.691 5.84 3.691m-43.362-.293h13.874c-1.598-5.272-9.111-9.554-11.185-13.544h8.743l-.916-3.41h-14.198c0 5.357 8.965 11.545 10.67 14.174h-7.739zm-32.69 5.933l-3.013-11.135c4.424.011 7.203.777 8.567 5.155 1.114 3.584.678 5.98-4.581 5.98zm53.788-9.151c-1.387-1.063-2.451-2.737-2.867-4.608 2.523.088 3.949.465 5.258 1.492 1.177.923 1.706 1.963 1.706 2.839 0 .481-.296 1.235-1.651 1.235-.617 0-1.622-.323-2.446-.958"/></clipPath><clipPath clipPathUnits="userSpaceOnUse" id="b"><path d="M298.65 486h104.17v-60.558H298.65z"/></clipPath><radialGradient r="1" gradientTransform="matrix(99.925 0 0 -99.925 308.66 489.77)" cx="0" cy="0" gradientUnits="userSpaceOnUse" id="c"><stop offset="0" stop-color="#00b9f2"/><stop offset=".253" stop-color="#00b9f2"/><stop offset=".527" stop-color="#00a5e8"/><stop offset="1" stop-color="#006cb7"/></radialGradient></defs><g clip-path="url(#a)" transform="matrix(1.92 0 0 -1.92 -573.421 933.12)"><g clip-path="url(#b)"><path d="M363.16 486h-.004c-5.986-.001-12.32-.637-18.746-1.978-26.332-5.492-45.747-20.956-45.753-35.658a16.314 16.314 0 01.343-3.35c1.906-9.136 11.447-15.62 24.7-18.256 2.802 10.807 9.245 35.542 9.245 35.542 1.264 4.892 1.969 6.781 3.22 8.911 1.628 2.752 4.239 5.027 7.899 5.358 1.99.179 4.953-.071 6.61-1.235 1.565-1.098 1.764-2.248 1.713-3.296-.108-2.163-1.431-3.61-3.545-3.61-2.169 0-2.845 1.591-2.855 2.64-.013 1.428.834 1.648.824 2.706-.006.541-.498 1.386-1.853 1.174-1.673-.263-3.066-1.59-3.972-3.904-.213-.538-.474-1.258-.8-2.488l-1.663-6.467h10.971c-1.433-5.196-3.863-14.426-4.543-16.954h-5.542l3.803 14.174h-5.432l-8.678-33.387a76.712 76.712 0 018.772-.474c5.834.012 12.022.644 18.344 1.964 26.393 5.506 46.584 21.115 46.603 35.86a15.769 15.769 0 01-.332 3.251C399.967 478.609 383.571 486 363.164 486h-.004m-48.726-15.449h6.482c9.944 0 10.644-5.075 9.801-8.688-1.041-4.472-3.721-7.661-15.136-7.68l-2.448-9.048h-5.577c1.022 3.772 6.878 25.416 6.878 25.416m50.024-19.426c0 6.137 5.523 11.369 11.427 11.369 2.936 0 5.472-1.364 5.472-3.687 0-2.409-1.918-4.887-4.818-5.827-1.804-.604-3.628-.961-6.689-.961-.073-.644-.044-.893-.044-1.241 0-1.637 1.392-3.034 3.329-3.034 2.599 0 5.051 2.384 5.338 2.673l.966-2.582c-.777-.806-1.643-1.506-2.628-2.017-1.552-.808-3.331-1.243-5.277-1.243-4.219 0-7.076 2.638-7.076 6.55m30.918 11.257c3.079 0 3.541-1.831 3.541-3.251 0-1.667-1.177-2.811-2.525-2.811-1.023 0-1.473.411-1.654.591-.47.47-.549.951-.602 1.351-.067.471-.221.926-.76 1.014-.78.123-1.418-.19-2.08-.778-.895-.796-1.658-2.054-2.215-3.264a15.924 15.924 0 01-.829-2.188l-2.153-7.911h-5.582l4.577 16.954h5.413l-.971-3.398c1.272 1.541 3.652 3.691 5.84 3.691m-43.362-.293h13.874c-1.598-5.272-9.111-9.554-11.185-13.544h8.743l-.916-3.41h-14.198c0 5.357 8.965 11.545 10.67 14.174h-7.739zm-32.69 5.933l-3.013-11.135c4.424.011 7.203.777 8.567 5.155 1.114 3.584.678 5.98-4.581 5.98zm53.788-9.151c-1.387-1.063-2.451-2.737-2.867-4.608 2.523.088 3.949.465 5.258 1.492 1.177.923 1.706 1.963 1.706 2.839 0 .481-.296 1.235-1.651 1.235-.617 0-1.622-.323-2.446-.958" fill="url(#c)"/></g></g></svg>