<svg xmlns="http://www.w3.org/2000/svg" xmlns:xlink="http://www.w3.org/1999/xlink" height="800" width="1200" viewBox="-2.5147185 -1.0336275 21.794227 6.201765"><use y="461.6857" x="604.46722" xlink:href="#b" width="100%" height="100%" transform="translate(-15.81035 -255.6915) scale(.35278)" fill="#fff"/><use y="72.4402" x="63.51625" xlink:href="#c" width="100%" height="100%" transform="translate(-15.81035 -255.6915) scale(.35278)" fill="#5e5e61"/><use y="72.4402" x="87.3641" xlink:href="#d" width="100%" height="100%" transform="translate(-15.81035 -255.6915) scale(.35278)" fill="#5e5e61"/><use y="83.4412" x="85.5401" xlink:href="#d" width="100%" height="100%" transform="translate(-15.81035 -255.6915) scale(.35278)" fill="#5e5e61"/><use y="94.4422" x="62.8826" xlink:href="#d" width="100%" height="100%" transform="translate(-15.81035 -255.6915) scale(.35278)" fill="#5e5e61"/><use y="105.4432" x="63.0023" xlink:href="#c" width="100%" height="100%" transform="translate(-15.81035 -255.6915) scale(.35278)" fill="#5e5e61"/><use y="105.4432" x="64.2886" xlink:href="#d" width="100%" height="100%" transform="translate(-15.81035 -255.6915) scale(.35278)" fill="#5e5e61"/><use y="116.4442" x="65.0201" xlink:href="#d" width="100%" height="100%" transform="translate(-15.81035 -255.6915) scale(.35278)" fill="#5e5e61"/><use y="182.4502" x="44.6217" xlink:href="#c" width="100%" height="100%" transform="translate(-15.81035 -255.6915) scale(.35278)" fill="#5e5e61"/><use y="61.8975" x="246.70285" xlink:href="#e" width="100%" height="100%" transform="translate(-15.81035 -255.6915) scale(.35278)" fill="#ee3023"/><use y="73.3545" x="308.39111" xlink:href="#d" width="100%" height="100%" transform="translate(-15.81035 -255.6915) scale(.35278)" fill="#5e5e61"/><use y="101.769" x="231.27486" xlink:href="#e" width="100%" height="100%" transform="translate(-15.81035 -255.6915) scale(.35278)" fill="#ee3023"/><use y="113.226" x="261.43259" xlink:href="#d" width="100%" height="100%" transform="translate(-15.81035 -255.6915) scale(.35278)" fill="#5e5e61"/><use y="141.6405" x="222.4351" xlink:href="#e" width="100%" height="100%" transform="translate(-15.81035 -255.6915) scale(.35278)" fill="#ee3023"/><path d="M4.13413 2.06726c0 1.14168-.9252 2.06726-2.06687 2.06726C.92557 4.13452 0 3.20894 0 2.06726S.92557 0 2.06726 0c1.14168 0 2.06687.92558 2.06687 2.06726" fill="#ee3023"/><path d="M2.08359 3.21996C1.51579 3.22189.9248 2.73723.92216 1.95864.92026 1.444 1.19827.94837 1.553.6544c.34637-.28637.82075-.47057 1.25068-.4721.05545 0 .11356.00456.14888.01671-.376.07786-.67528.42804-.67414.82493 0 .01329.00113.02734.00264.0338.62933.15344.91494.53324.91684 1.0585.00152.52565-.41322 1.10143-1.11434 1.1037" fill="#fff"/><path d="M5.46913 2.92333l-.63199-1.50819H5.25l.39423 1.00154.38208-1.00154h.39423l-.61337 1.5082zm2.05131-.76188c0-.06267-.00721-.1223-.02203-.17889-.01444-.05658-.03646-.1052-.0657-.14584-.02925-.04102-.06457-.0733-.10635-.09723-.04178-.0243-.09077-.03646-.14698-.03646-.05621 0-.10559.01216-.14699.03646-.04177.02393-.07748.05621-.10634.09723-.02925.04064-.05127.08926-.0657.14584-.01482.0566-.02204.11622-.02204.1789 0 .06494.00722.12533.02203.18078.01444.05545.0357.10406.06381.14584.0281.04178.0638.07482.10672.09913.04254.02392.0923.03608.1485.03608.05622 0 .10521-.01216.14699-.03608.04178-.02431.0771-.05735.10634-.09913.02925-.04178.05128-.0904.0657-.14584.01482-.05545.02204-.11584.02204-.18079m.3817.00166c0 .09836-.0152.19483-.0452.28978-.03038.09495-.0752.17965-.13483.25485-.05925.0752-.13445.13559-.22522.18154-.09077.04596-.19674.06875-.31751.06875-.12116 0-.22712-.0228-.31752-.06875-.09077-.04595-.16597-.10634-.2256-.18154-.05925-.0752-.10406-.1599-.13445-.25485-.03-.09495-.0452-.19142-.0452-.28978 0-.098.0152-.1937.0452-.2879.03039-.0938.0752-.17774.13445-.2518.05963-.07406.13483-.13331.2256-.17813.0904-.04481.19636-.0676.31752-.0676.12077 0 .22636.0228.316.0676.08962.04482.16482.10407.22521.17813.06077.07406.10597.158.13635.2518.03.0942.0452.1899.0452.2879m1.16561-.41602c-.07482-.02925-.14433-.04406-.2089-.04406-.06608 0-.12343.01293-.1709.03798-.04786.02505-.08736.05887-.1185.10179-.03115.04292-.05431.09115-.06988.1447a.58422.58422 0 00-.02355.16483c0 .06267.00683.12268.0205.18041.0133.05735.03419.10787.0623.15078.02772.04292.06304.07748.10558.10369.04254.02582.09305.03912.15116.03912.04786 0 .09647-.01329.14622-.03912.04976-.02621.08508-.05735.10597-.09267zm.03114 1.17624l-.01557-.11546c-.03532.0395-.08204.07444-.14053.10445-.0581.03038-.12685.04557-.20585.04557-.10368 0-.1956-.02202-.27421-.0657-.07938-.04368-.14585-.10217-.19978-.17509-.05393-.07292-.09533-.15762-.12344-.2537-.02772-.09572-.04177-.19598-.04177-.30043a.97415.97415 0 01.0433-.28789c.02924-.09381.0733-.17774.13254-.2518.05963-.07407.1337-.13332.22333-.17813.08925-.04482.19445-.0676.31485-.0676.079 0 .16446.0148.25599.04367v-.5849h.38777v2.08701zm1.44894-.70719c-.04178.0022-.08507.0061-.12913.01103a1.47572 1.47572 0 00-.12571.0205c-.08432.0167-.14243.0452-.1751.08584-.03228.04102-.0486.08507-.0486.1333 0 .04976.01822.09002.05506.1204.03684.03.0885.0452.15572.0452a.3581.3581 0 00.1466-.03114c.0471-.0209.08774-.0471.12116-.07824zm.03114.70605l-.01519-.1128c-.04215.04634-.09533.0828-.16027.109-.06495.02622-.13597.0395-.21345.0395-.06495 0-.12761-.01102-.18686-.03304-.06001-.02163-.1128-.05317-.15876-.09381-.04595-.04064-.08318-.0904-.11128-.15002-.02849-.05963-.04254-.12685-.04254-.20205 0-.07482.01443-.1413.04406-.19864.02924-.05735.06874-.10559.11926-.14546.05013-.0395.10786-.07179.1728-.09685.06457-.02506.13294-.04406.20396-.0566.05013-.01025.1052-.01785.16483-.02317.05963-.00532.10939-.00987.14926-.01406v-.02202c0-.08356-.02127-.1428-.06456-.1785-.04292-.03533-.10217-.05318-.17737-.05318-.04406 0-.08621.00532-.1261.01596-.03987.01025-.0752.02318-.10672.03874-.03152.01595-.05925.03152-.08355.0471-.02393.01557-.0433.02962-.05811.04215L9.8 1.5625c.01671-.0148.04216-.03228.07672-.05317.03457-.02089.07596-.0414.12534-.06115.049-.01976.10406-.03646.1656-.05013.06152-.01367.12798-.0205.19863-.0205.08355 0 .1599.01102.22864.03304.06874.02202.12837.0562.1785.1033.04976.04672.08888.10597.11736.17813.0281.07178.04216.15875.04216.26092v.96925zm1.55263-1.74176c-.01253-.00607-.03684-.01519-.0733-.0266-.03684-.01138-.08508-.01709-.14584-.01709-.05394 0-.09951.01635-.13597.04862-.03646.03228-.0547.08507-.0547.158v.07178h.3255v.31295h-.32246v1.19524h-.38815V1.72809h-.20016v-.31295h.20016v-.08128c0-.09799.01253-.18078.0376-.24877.02506-.0676.06-.12306.10482-.1656.04482-.04291.09761-.07443.158-.09418.06077-.01977.12647-.02963.1975-.02963.0938 0 .17129.00874.23281.0266.06153.01786.09761.02962.10787.03608zm1.05775.98102c0-.06267-.0076-.1223-.02203-.17889-.01444-.05658-.03646-.1052-.0657-.14584-.02925-.04102-.06457-.0733-.10635-.09723-.04178-.0243-.09078-.03646-.14699-.03646-.0562 0-.10558.01216-.14698.03646-.04178.02393-.07748.05621-.10672.09723-.02887.04064-.0509.08926-.0657.14584-.01444.0566-.02165.11622-.02165.1789 0 .06494.0072.12533.02164.18078.01482.05545.03608.10406.06419.14584.0281.04178.0638.07482.10634.09913.04292.02392.09267.03608.14888.03608.05621 0 .1052-.01216.14699-.03608.04178-.02431.0771-.05735.10634-.09913.02925-.04178.05127-.0904.0657-.14584.01444-.05545.02204-.11584.02204-.18079m.3817.00166c0 .09836-.0152.19483-.04558.28978-.03.09495-.07482.17965-.13445.25485-.05925.0752-.13445.13559-.22522.18154-.09077.04596-.19674.06875-.31751.06875-.12116 0-.22713-.0228-.31752-.06875-.09077-.04595-.16597-.10634-.2256-.18154-.05925-.0752-.10406-.1599-.13445-.25485a.94433.94433 0 01-.0452-.28978c0-.098.01482-.1937.0452-.2879.03039-.0938.0752-.17774.13445-.2518.05963-.07406.13483-.13331.2256-.17813.0904-.04481.19636-.0676.31752-.0676.12077 0 .22636.0228.31599.0676.08963.04482.16483.10407.22522.17813.06077.07406.10597.158.13597.2518.03038.0942.04558.1899.04558.2879m1.20435.76022v-.86025c0-.1147-.02393-.20357-.07179-.26624-.04823-.06229-.1147-.0938-.20053-.0938-.06039 0-.11622.01556-.16711.04709-.05128.03114-.09571.0657-.13331.1033v1.0699h-.38778V1.41514h.3536l.0186.11888a.67666.67666 0 01.2051-.11546c.07595-.02734.15268-.04064.22978-.04064.07937 0 .1523.01177.21914.0357.06685.02431.1242.0623.17205.11432.04823.05204.08508.12002.11128.2032.02583.08355.03912.18382.03912.30042v.89177zm1.59516-.93545c-.00418-.05203-.0152-.0976-.03304-.13597-.01785-.03874-.03988-.06988-.06609-.0938-.0262-.02432-.05431-.04178-.0847-.05356-.03076-.01138-.06152-.01709-.09305-.01709-.06722 0-.13103.02506-.1918.0752-.06076.05014-.09646.12496-.1071.22523zm-.5849.2784c.00836.12723.04786.21914.11926.27535.07103.05621.16332.0847.27612.0847.05241 0 .10179-.00494.14774-.01406.04596-.00948.08698-.02127.12268-.03608.0357-.01444.06608-.02924.09115-.04368.02507-.0148.04368-.02848.05659-.04101l.1033.31637c-.0148.01025-.03835.0243-.07064.04216-.03228.01786-.07254.03418-.1204.05013-.04785.01557-.10444.02887-.169.04064-.06457.01138-.1356.01709-.2127.01709-.09836 0-.19141-.01557-.28029-.04672-.0885-.03152-.16635-.08014-.23282-.14584-.06684-.0657-.12001-.14736-.15951-.24535-.03988-.098-.05963-.21497-.05963-.35056 0-.12723.01823-.24003.0547-.33802.03645-.09799.08659-.1804.15001-.24725.0638-.06647.13787-.11774.22219-.15344.0847-.03532.1747-.05317.2708-.05317.09608 0 .18458.01596.26623.0471.08128.03113.15154.07975.21117.14545.05925.06571.10635.15079.14053.25523.03456.10407.05165.22826.05165.3722v.06875zm0 0" fill="#ee3023"/></svg>